<svg xmlns="http://www.w3.org/2000/svg" width="93" height="93" viewBox="0 0 93 93">
  <g id="Group_618" data-name="Group 618" transform="translate(-382 -1858)">
    <g id="Rectangle_126" data-name="Rectangle 126" transform="translate(382 1858)" fill="#fff" stroke="#707070" stroke-width="1" opacity="0">
      <rect width="93" height="93" stroke="none"/>
      <rect x="0.5" y="0.5" width="92" height="92" fill="none"/>
    </g>
    <g id="odnoklassniki" transform="translate(398.5 1863)">
      <path id="Path_430" data-name="Path 430" d="M5.256,14.817c-2.1,4.122.284,6.092,5.716,9.458,4.618,2.853,11,3.9,15.095,4.313l-3.434,3.3c-4.867,4.635-9.485,9.122-12.714,12.232-4.7,4.5,2.866,11.732,7.563,7.323L30.195,39.185c4.867,4.683,9.533,9.17,12.714,12.28,4.7,4.426,12.262-2.74,7.614-7.323L37.809,31.91l-3.482-3.3c4.149-.417,10.433-1.522,15-4.313l0,0c5.432-3.383,7.812-5.35,5.746-9.471-1.248-2.34-4.614-4.3-9.1-.913a27.7,27.7,0,0,1-15.81,4.635A27.691,27.691,0,0,1,14.351,13.9c-4.481-3.4-7.86-1.426-9.1.913Z" transform="translate(0 29.242)" fill="#ffc107"/>
      <path id="Path_431" data-name="Path 431" d="M27.294,41.532c11.9,0,21.611-9.3,21.611-20.742C48.9,9.3,39.191,0,27.294,0S5.68,9.3,5.68,20.79C5.68,32.235,15.394,41.532,27.294,41.532Zm0-31A10.447,10.447,0,0,1,37.908,20.79,10.438,10.438,0,0,1,27.294,31,10.438,10.438,0,0,1,16.68,20.79,10.44,10.44,0,0,1,27.294,10.532Z" transform="translate(2.856)" fill="#ffc107"/>
    </g>
  </g>
</svg>
