<svg id="school_3_" data-name="school (3)" xmlns="http://www.w3.org/2000/svg" width="109.562" height="109.562" viewBox="0 0 109.562 109.562">
  <defs>
    <style>
      .cls-1 {
        fill: #dff5ff;
      }

      .cls-2 {
        fill: #00abf6;
      }
    </style>
  </defs>
  <g id="Group_79" data-name="Group 79" transform="translate(7.069 79.521)">
    <rect id="Rectangle_27" data-name="Rectangle 27" class="cls-1" width="21" height="11" transform="translate(73.931 3.479)"/>
    <rect id="Rectangle_28" data-name="Rectangle 28" class="cls-1" width="21" height="11" transform="translate(-0.069 3.479)"/>
    <rect id="Rectangle_29" data-name="Rectangle 29" class="cls-1" width="53" height="3" transform="translate(20.931 0.479)"/>
  </g>
  <path id="Path_221" data-name="Path 221" d="M243.534,24.74H240V0h24.74V15.9H243.534Zm0-12.37h17.671V3.534H243.534Z" transform="translate(-186.986)"/>
  <rect id="Rectangle_30" data-name="Rectangle 30" width="3" height="4" transform="translate(87 83)"/>
  <rect id="Rectangle_31" data-name="Rectangle 31" width="3" height="4" transform="translate(94 83)"/>
  <rect id="Rectangle_32" data-name="Rectangle 32" width="3" height="3" transform="translate(64 80)"/>
  <rect id="Rectangle_33" data-name="Rectangle 33" width="3" height="3" transform="translate(71 80)"/>
  <rect id="Rectangle_34" data-name="Rectangle 34" width="4" height="3" transform="translate(35 80)"/>
  <rect id="Rectangle_35" data-name="Rectangle 35" width="4" height="3" transform="translate(42 80)"/>
  <rect id="Rectangle_36" data-name="Rectangle 36" width="3" height="4" transform="translate(87 90)"/>
  <rect id="Rectangle_37" data-name="Rectangle 37" width="3" height="4" transform="translate(94 90)"/>
  <rect id="Rectangle_38" data-name="Rectangle 38" width="4" height="4" transform="translate(19 83)"/>
  <rect id="Rectangle_39" data-name="Rectangle 39" width="4" height="4" transform="translate(12 83)"/>
  <rect id="Rectangle_40" data-name="Rectangle 40" width="4" height="4" transform="translate(19 90)"/>
  <rect id="Rectangle_41" data-name="Rectangle 41" width="4" height="4" transform="translate(12 90)"/>
  <path id="Path_222" data-name="Path 222" d="M221.206,427.438H200V408h21.206ZM203.534,423.9h14.137v-12.37H203.534Z" transform="translate(-155.822 -317.876)"/>
  <rect id="Rectangle_42" data-name="Rectangle 42" width="4" height="16" transform="translate(53 92)"/>
  <path id="Path_223" data-name="Path 223" d="M108.1,265.373l-12.02-10.3H83.055V248H79.521v51.247H30.041V248H26.507v7.069H13.483l-12.022,10.3a4.188,4.188,0,0,0,2.727,7.367H5.3v30.041h98.959V272.74h1.113a4.187,4.187,0,0,0,2.725-7.367ZM8.836,299.247V272.74H26.507l.517-3.534H4.188a.654.654,0,0,1-.426-1.15L14.791,258.6H26.507v40.644Zm96.538-30.041H83.055v3.534h17.671v26.507H83.055V258.6H94.771l11.027,9.452a.653.653,0,0,1-.424,1.15Z" transform="translate(0 -193.219)"/>
  <path id="Path_224" data-name="Path 224" d="M224,354.6h10.6V344H224Zm3.534-7.069h3.534v3.534h-3.534Z" transform="translate(-174.52 -268.014)"/>
  <path id="Path_225" data-name="Path 225" d="M198.137,228.274A14.137,14.137,0,1,0,184,214.137,14.154,14.154,0,0,0,198.137,228.274Zm-10.444-15.9a10.615,10.615,0,0,1,8.677-8.675V205.3H199.9V203.7a10.617,10.617,0,0,1,8.677,8.675h-1.608V215.9h1.608a10.615,10.615,0,0,1-8.677,8.677v-1.608H196.37v1.608a10.615,10.615,0,0,1-8.677-8.677H189.3V212.37Z" transform="translate(-143.356 -155.822)"/>
  <path id="Path_226" data-name="Path 226" d="M243.534,240H240v7.069h7.069v-3.534h-3.534Z" transform="translate(-186.986 -186.986)"/>
  <path id="Path_227" data-name="Path 227" class="cls-2" d="M153.308,139.517H152.9a5.4,5.4,0,0,1-3.393-1.2l-26.164-21.26-26.166,21.26a5.382,5.382,0,0,1-3.391,1.2h-.408a5.377,5.377,0,0,1-3.441-9.509l29.149-24.293a6.815,6.815,0,0,1,8.512,0l29.152,24.291a5.378,5.378,0,0,1-3.442,9.509Z" transform="translate(-68.562 -81.202)"/>
</svg>
