<svg xmlns="http://www.w3.org/2000/svg" xmlns:xlink="http://www.w3.org/1999/xlink" width="527.235" height="400.132" viewBox="0 0 527.235 400.132">
  <defs>
    <style>
      .cls-1, .cls-23 {
        fill: #d6e6ff;
      }

      .cls-1, .cls-6 {
        opacity: 0.1;
      }

      .cls-2 {
        fill: #3a3768;
      }

      .cls-3 {
        fill: #d48a9b;
      }

      .cls-4 {
        opacity: 0.05;
      }

      .cls-5 {
        fill: #efc6cd;
      }

      .cls-7 {
        fill: #fff;
      }

      .cls-8 {
        fill: #d3dae1;
      }

      .cls-9 {
        fill: url(#linear-gradient);
      }

      .cls-10 {
        fill: #585b8a;
      }

      .cls-11 {
        opacity: 0.2;
      }

      .cls-12 {
        fill: #636992;
      }

      .cls-13 {
        fill: #ffd6d6;
      }

      .cls-14 {
        fill: #dce6f2;
      }

      .cls-15 {
        fill: #565988;
      }

      .cls-16 {
        fill: #505484;
      }

      .cls-17 {
        fill: #575988;
      }

      .cls-18 {
        fill: #d28690;
      }

      .cls-19 {
        fill: #575989;
      }

      .cls-20 {
        fill: #353045;
      }

      .cls-21 {
        fill: #f0f3f7;
      }

      .cls-22 {
        fill: #663d5c;
      }

      .cls-24 {
        opacity: 0.3;
      }

      .cls-25 {
        fill: #ffd037;
      }

      .cls-26 {
        fill: #65617d;
      }

      .cls-27 {
        fill: #9d9cb5;
      }

      .cls-28 {
        fill: #4b4770;
      }

      .cls-29 {
        fill: #d4dfec;
      }
    </style>
    <linearGradient id="linear-gradient" x1="0.5" y1="1" x2="0.5" gradientUnits="objectBoundingBox">
      <stop offset="0" stop-color="gray" stop-opacity="0.251"/>
      <stop offset="0.54" stop-color="gray" stop-opacity="0.122"/>
      <stop offset="1" stop-color="gray" stop-opacity="0.102"/>
    </linearGradient>
  </defs>
  <g id="Group_196" data-name="Group 196" transform="translate(-71 -995)">
    <g id="Group_195" data-name="Group 195">
      <g id="Group_194" data-name="Group 194">
        <g id="Group_193" data-name="Group 193">
          <g id="Group_192" data-name="Group 192">
            <g id="Group_189" data-name="Group 189">
              <path id="Path_2" data-name="Path 2" class="cls-1" d="M610.3,154.664c-.092.43-.179.86-.28,1.285a138.144,138.144,0,0,1-16.042,41.613c-.256.43-.512.86-.773,1.289a119.581,119.581,0,0,1-18.085,22.827,54.826,54.826,0,0,1-12.99,9.977c-6.968,3.641-15.115,5.119-23.122,6.326-8.316,1.26-16.747,2.313-25.155,3.448q-4.481.594-8.91,1.26c-8.123,1.2-16.187,2.593-24.059,4.438a141.046,141.046,0,0,0-28.072,9.446q-1.067.483-2.11,1.024c-.7.348-1.4.7-2.081,1.058s-1.362.715-2.033,1.082c-.348.188-.7.377-1.038.575s-.681.372-1.014.565c-1,.56-1.99,1.135-2.975,1.714l-.039.024c-.652.382-1.294.773-1.932,1.164-3.641,2.212-7.205,4.52-10.769,6.843l-2.241,1.449-3.472,2.246c-.676.439-1.367.879-2.048,1.313-.483.319-.966.637-1.492.966-2.53,1.594-5.095,3.158-7.727,4.65-.623.357-1.251.715-1.883,1.062a107.033,107.033,0,0,1-16.622,7.495l-.077.029a75.818,75.818,0,0,1-8.828,2.492c-1.724.377-3.453.686-5.2.922a55.758,55.758,0,0,1-14.1.2c-9.209-1.067-17.839-4.6-27.043-5.795-18.949-2.415-37.353,5.365-55.173,11.46q-6.572,2.246-13.241,4.206c-2.955.874-5.921,1.7-8.91,2.5a335.258,335.258,0,0,1-55.873,9.8,157.361,157.361,0,0,1-23.735.526,87.166,87.166,0,0,1-8.9-.966c-10-1.545-19.317-4.786-26.84-10.721-6.162-4.873-10.571-11.223-13.927-17.868a77.972,77.972,0,0,1-7.2-21.509c-.184-1.019-.348-2.043-.483-3.066q-.362-2.627-.541-5.283a75.619,75.619,0,0,1,3.322-27.937c3.187-10.1,8.5-19.8,10.837-29.979q.145-.647.275-1.289a44.635,44.635,0,0,0,.71-4.679c1.193-12.507-3.38-24.7-6.968-36.933-.126-.425-.251-.855-.372-1.285q-.58-2.038-1.111-4.071c-3.322-12.932-4.245-26.778-1.285-39.686.092-.43.2-.86.309-1.285A58.1,58.1,0,0,1,139.9,87.206c5.544-6.954,12.821-12.744,20.6-17.829q5.684-3.718,11.754-6.949,4.346-2.318,8.9-4.39a175.372,175.372,0,0,1,79.637-15.332c1.449.063,2.9.14,4.346.246s3.033.232,4.549.372c17.7,1.719,34.929,5.867,52.034,10.4,5.732,1.521,11.455,3.081,17.172,4.612,2.545.676,5.085,1.352,7.63,2.009,12.464,3.221,25.111,6.138,37.918,8.316q4.448.768,8.9,1.4A255.082,255.082,0,0,0,424.49,72.7q6.08.121,12.165-.106,3.071-.111,6.147-.333c21.176-1.492,41.642-6.486,62.141-11.15q4.448-1.014,8.91-2c3.9-.86,7.8-1.69,11.725-2.458,24.4-4.8,46.152-2.038,68.839,7.857,5.158,2.246,10.31,4.96,13.468,9.175s3.95,9.393,4.539,14.391c.835,7.118,1.381,14.328,1.589,21.577,0,.425,0,.855.029,1.285A193.673,193.673,0,0,1,610.3,154.664Z" transform="translate(-18.774 955.757)"/>
              <path id="Path_3" data-name="Path 3" class="cls-1" d="M454.42,197.782h-1.594v1.289h1.806Zm-18.075,0a.082.082,0,0,0,0,.034c-.043.353-.092.705-.14,1.062v.193h13.811v-.077l.966-1.212Zm-37.015,0V156.17h15.888c-.169-.111-.343-.227-.522-.333l-.232-.15-.3-.184c-.174-.1-.348-.2-.531-.3s-.295-.164-.449-.246l-.106-.058H399.33v-2.294l-.372.145-.391.184h-.029l-.082.043-.246.13-.246.13c-.241.13-.483.275-.724.425l-.232.155-.483.309c-.623.415-1.236.85-1.869,1.256-.159.1-.319.2-.483.295-.343.2-.7.4-1.058.57a4.035,4.035,0,0,1-.483.208l-.261.1-.241.082h0a11.313,11.313,0,0,1-1.738.454v40.681H366.569c0,.048.034.087.048.135.13.386.261.768.386,1.154h23.421v44.6h.362l.42.024.758.043,1.212.145.555.053.6.063h.092l1.067.13.227.029.517.072.739.106h0l1.772-.077h0l.241.043a1.677,1.677,0,0,1,.3.048V199.072h36.866v-.193c.048-.357.1-.71.14-1.062a.082.082,0,0,1,0-.034Zm55.091,0h-1.594v1.289h1.806Zm-19.07,0c-.058.43-.111.86-.169,1.289h15.4l1.048-1.289Zm-36.02,0V156.17h15.888c-.169-.111-.343-.227-.522-.333l-.232-.15-.3-.184c-.174-.1-.348-.2-.531-.3s-.295-.164-.449-.246l-.106-.058H399.33v-2.294l-.372.145-.391.184h-.029l-.082.043-.246.13-.246.13c-.241.13-.483.275-.724.425l-.232.155-.483.309c-.623.415-1.236.85-1.869,1.256-.159.1-.319.2-.483.295-.343.2-.7.4-1.058.57a4.035,4.035,0,0,1-.483.208l-.261.1-.241.082h0a11.313,11.313,0,0,1-1.738.454v40.681H366.569c0,.048.034.087.048.135.13.382.266.768.391,1.154h23.416v44.6h.362l.42.024.758.043,1.212.15.555.053.6.063h.092l1.067.13.227.029.517.072.739.106h0l1.772-.077h0l.241.043a1.677,1.677,0,0,1,.3.048V199.072h35.9c.058-.43.111-.86.169-1.289Zm120.506-86.654h100.19c0-.43,0-.86-.029-1.285H519.836V59.321q-4.462.966-8.91,2v48.523H401.962l-.275-.246.415-.367h0l40.531-36.421q-6.085.232-12.165.106L399.325,100.9V70.284q-4.462-.633-8.9-1.4v30.6L344.886,58.558c-5.718-1.531-11.44-3.091-17.172-4.612L389.638,109.6l-.275.246H275.685V43.588q-2.275-.212-4.549-.372c-1.449-.106-2.9-.184-4.346-.246v66.874H187.138V58.3q-4.51,2.067-8.9,4.39v47.152H134.959c-.106.425-.217.855-.309,1.285h43.583v43.757H137.045c.121.43.246.86.372,1.285h40.816v41.613H143.676q-.13.642-.275,1.289h34.833V315.42c2.9.449,5.9.763,8.9.966V199.072h79.637v106.98c2.989-.8,5.954-1.623,8.91-2.5V199.072h114.74v93.468a75.811,75.811,0,0,0,8.828-2.492l.077-.029V199.072h111.6V242.91q4.443-.652,8.91-1.251V199.072h79.352c.261-.43.517-.86.773-1.289H519.836V156.17H616c.1-.425.188-.855.28-1.285H519.836Zm-332.7,0h79.637v43.757H187.138Zm0,86.654V156.17h79.637v41.613Zm88.547-86.654h114.74v43.757H275.685Zm0,86.654V156.17h114.74v41.613Zm235.241,0H399.33V156.17h111.6Zm0-42.9H399.33V112.3l1.565-1.173H510.926Zm-74.581,42.9a.082.082,0,0,0,0,.034c-.043.353-.092.705-.14,1.062v.193h13.811v-.077l.966-1.212Zm18.075,0h-1.594v1.289h1.806Zm-55.091,0V156.17h15.888c-.169-.111-.343-.227-.522-.333l-.232-.15-.3-.184c-.174-.1-.348-.2-.531-.3s-.295-.164-.449-.246l-.106-.058H399.33v-2.294l-.372.145-.391.184h-.029l-.082.043-.246.13-.246.13c-.241.13-.483.275-.724.425l-.232.155-.483.309c-.623.415-1.236.85-1.869,1.256-.159.1-.319.2-.483.295-.343.2-.7.4-1.058.57a4.035,4.035,0,0,1-.483.208l-.261.1-.241.082h0a11.313,11.313,0,0,1-1.738.454v40.681H366.569c0,.048.034.087.048.135.13.386.261.768.386,1.154h23.421v44.6h.362l.42.024.758.043,1.212.145.555.053.6.063h.092l1.067.13.227.029.517.072.739.106h0l1.772-.077h0l.241.043a1.677,1.677,0,0,1,.3.048V199.072h36.866v-.193c.048-.357.1-.71.14-1.062a.082.082,0,0,1,0-.034Z" transform="translate(-24.756 955.536)"/>
              <path id="Path_4" data-name="Path 4" class="cls-1" d="M319.476,118.8h.691a1.4,1.4,0,0,1-.845-1.125h0c0-.889,1.328-1.613,2.951-1.613h20.649c1.623,0,2.946.724,2.946,1.613h0c0,.884-1.323,1.613-2.946,1.613h-.691a1.386,1.386,0,0,1,.845,1.12c0,.758-.966,1.4-2.255,1.565h5.945c1.618,0,2.946.724,2.946,1.613s-1.328,1.613-2.946,1.613H326.111c-1.618,0-2.946-.729-2.946-1.613,0-.758.966-1.391,2.255-1.565h-5.945c-1.623,0-2.946-.724-2.946-1.613S317.853,118.8,319.476,118.8Z" transform="translate(-118.804 917.742)"/>
              <path id="Path_5" data-name="Path 5" class="cls-1" d="M782.916,150.568h.69a1.4,1.4,0,0,1-.84-1.125h0c0-.889,1.323-1.613,2.946-1.613h20.649c1.623,0,2.951.724,2.951,1.613h0c0,.884-1.328,1.608-2.951,1.608h-.686a1.4,1.4,0,0,1,.84,1.125c0,.758-.966,1.4-2.255,1.565h5.945c1.623,0,2.946.724,2.946,1.613s-1.323,1.613-2.946,1.613H789.556c-1.623,0-2.951-.729-2.951-1.613,0-.758.966-1.4,2.255-1.565h-5.945c-1.618,0-2.946-.724-2.946-1.613S781.3,150.568,782.916,150.568Z" transform="translate(-358.443 901.314)"/>
              <path id="Path_6" data-name="Path 6" class="cls-1" d="M253.841,286.528h.686a1.4,1.4,0,0,1-.84-1.125h0c0-.884,1.328-1.613,2.946-1.613h20.654c1.618,0,2.946.729,2.946,1.613h0c0,.889-1.328,1.613-2.946,1.613H276.6a1.381,1.381,0,0,1,.84,1.12c0,.758-.966,1.4-2.255,1.565h5.945c1.623,0,2.951.729,2.951,1.613s-1.328,1.613-2.951,1.613H260.5c-1.623,0-2.946-.724-2.946-1.613,0-.753.966-1.391,2.255-1.565h-5.964c-1.623,0-2.951-.724-2.951-1.613S252.237,286.528,253.841,286.528Z" transform="translate(-84.862 831.011)"/>
              <ellipse id="Ellipse_1" data-name="Ellipse 1" class="cls-1" cx="31.37" cy="103.232" rx="31.37" ry="103.232" transform="translate(349.23 1279.022) rotate(-78.45)"/>
              <path id="Path_7" data-name="Path 7" class="cls-2" d="M828.56,394.23s5.491-26.951,26.454-24.455c0,0,14.487.995,17.467,10.479v20.963Z" transform="translate(-383.568 786.634)"/>
              <path id="Path_8" data-name="Path 8" class="cls-3" d="M786.637,388.987,599.957,373.51,576,378.5l1.5,33.442,1.632.2,1.859,50.218L764.172,495.3l19.471-16.472V424.39l2.492-1.463Z" transform="translate(-226.842 801.863)"/>
              <path id="Path_9" data-name="Path 9" class="cls-4" d="M990.248,405.56l-.5,33.939-20.215,9.484-.251-35.441Z" transform="translate(-430.202 785.29)"/>
              <path id="Path_10" data-name="Path 10" class="cls-4" d="M985.4,478.94l.246,53.41L966.18,548.822l1.251-61.895Z" transform="translate(-428.599 747.346)"/>
              <path id="Path_11" data-name="Path 11" class="cls-4" d="M582.85,455.83l186.443,22.75.1-4.317L582.71,454.13Z" transform="translate(-230.312 760.175)"/>
              <path id="Path_12" data-name="Path 12" class="cls-4" d="M986.2,480.9V478.94l-18.471,8.152v4.327Z" transform="translate(-429.401 747.346)"/>
              <path id="Path_13" data-name="Path 13" class="cls-5" d="M575.48,378.5l23.957-4.993,186.68,15.477-20.963,7.983Z" transform="translate(-226.573 801.863)"/>
              <path id="Path_14" data-name="Path 14" class="cls-6" d="M955.753,407.55l9.161.6-15.183,4.544L942,412.138Z" transform="translate(-416.096 784.261)"/>
              <path id="Path_15" data-name="Path 15" class="cls-7" d="M955.753,406.72l9.161.6-15.183,4.549-7.731-.56Z" transform="translate(-416.096 784.69)"/>
              <path id="Path_16" data-name="Path 16" class="cls-8" d="M1022.32,444.513c.362-.155.744.14,1.13.212.222.043.449,0,.671.043.449.058.893.357,1.323.208" transform="translate(-483.759 747.926)"/>
              <path id="Path_17" data-name="Path 17" class="cls-8" d="M1021.34,445.082c.357-.155.744.135,1.13.212.222.039.449,0,.671.039.449.063.893.362,1.323.212" transform="translate(-483.252 747.632)"/>
              <path id="Path_18" data-name="Path 18" class="cls-8" d="M1019.08,446.222c.362-.155.749.135,1.135.208.217.043.449,0,.666.043.454.063.9.362,1.323.208" transform="translate(-482.084 747.043)"/>
              <path id="Path_19" data-name="Path 19" class="cls-6" d="M873.753,398.21l9.161.6-15.183,4.544L860,402.8Z" transform="translate(-373.695 789.091)"/>
              <path id="Path_20" data-name="Path 20" class="cls-7" d="M873.753,397.39l9.161.6-15.183,4.544L860,401.978Z" transform="translate(-373.695 789.515)"/>
              <path id="Path_21" data-name="Path 21" class="cls-8" d="M940.32,435.182c.362-.155.744.135,1.13.212.222.039.449,0,.671.039.449.063.893.362,1.323.213" transform="translate(-441.358 752.751)"/>
              <path id="Path_22" data-name="Path 22" class="cls-8" d="M939.34,435.752c.357-.155.744.135,1.13.208.222.043.449,0,.671.043.449.063.893.362,1.323.208" transform="translate(-440.851 752.457)"/>
              <path id="Path_23" data-name="Path 23" class="cls-8" d="M937.08,436.883c.362-.155.749.14,1.135.212.217.043.449,0,.666.043.454.058.9.362,1.323.208" transform="translate(-439.682 751.872)"/>
              <path id="Path_24" data-name="Path 24" class="cls-6" d="M913.083,402.88l9.166.6-15.183,4.549-7.736-.56Z" transform="translate(-394.032 786.676)"/>
              <path id="Path_25" data-name="Path 25" class="cls-7" d="M913.083,402.06l9.166.6L907.066,407.2l-7.736-.56Z" transform="translate(-394.032 787.1)"/>
              <path id="Path_26" data-name="Path 26" class="cls-8" d="M979.65,439.852c.362-.155.749.135,1.135.208.217.043.444,0,.666.043.449.058.9.362,1.323.208" transform="translate(-461.695 750.336)"/>
              <path id="Path_27" data-name="Path 27" class="cls-8" d="M978.67,440.413c.362-.155.749.14,1.135.212.217.043.444,0,.666.043.449.058.9.362,1.323.208" transform="translate(-461.188 750.046)"/>
              <path id="Path_28" data-name="Path 28" class="cls-8" d="M976.42,441.552c.357-.155.744.135,1.13.212.222.039.449,0,.671.039.449.063.893.362,1.323.212" transform="translate(-460.025 749.457)"/>
              <ellipse id="Ellipse_2" data-name="Ellipse 2" class="cls-1" cx="97.78" cy="20.128" rx="97.78" ry="20.128" transform="translate(213.865 1336.912)"/>
              <path id="Path_29" data-name="Path 29" class="cls-9" d="M574.311,331.359a65.512,65.512,0,0,0-5.172-17.911l.314-3.091s.068-1.545-.034-3.863a17.58,17.58,0,0,1,.565-4.288c.845-2.68-1.058-5.974-1.27-6.278s.106-6.181-1.8-9.064-14.574-8.243-14.574-8.243-.681-1.425-1.642-3.091l.087-.169a18.157,18.157,0,0,0-2.9-3.907c-.777-.831-1.526-1.3-2.13-1.072a17.387,17.387,0,0,1-.56-2.448c.126.034.256.068.382.092a3.94,3.94,0,0,0,1.594.039,4.735,4.735,0,0,0,2.617-2.318c3.274-4.974,6.094-10.431,6.669-16.318a10.376,10.376,0,0,0-.169-3.6,12.161,12.161,0,0,0-1.13-2.632,21.152,21.152,0,0,0-3.187-4.7,18.156,18.156,0,0,0-8.562-4.689,29.641,29.641,0,0,0-11.059-.826c-.966.111-1.932.27-2.9.333a30.1,30.1,0,0,1-3.675-.063l-6.321-.367-.029-.1-1.053-.063a2.665,2.665,0,0,0,.517,2.579,4.4,4.4,0,0,1,1.067,2.492,5.094,5.094,0,0,1-1.222,2.415,2.323,2.323,0,0,0-.391,2.526,1.448,1.448,0,0,0,.256.28,3.183,3.183,0,0,0,2.323.618h.145a15.728,15.728,0,0,0-3.2,9.523,16.013,16.013,0,0,0,8.736,14.188c.092.314.184.637.27.966a29.582,29.582,0,0,1,1.014,10.441l-.111.241-.068-.256s-7.447,5.051-9.658,6.389-4.433,5.872-4.539,7.108-3.593,19.882-3.593,19.882a45.676,45.676,0,0,0-1.748,5.756l-4.448,3.907s-9.175.826-11.831.208l.077.512a40.125,40.125,0,0,0-7.128-.966,7.558,7.558,0,0,0-3.863.517l-.092.043-.072.034a15.308,15.308,0,0,0-4.056,1.14c-.155.063-.295.126-.43.188l.029-.633-9.929-.512-5.071-1.029s-1.8-1.449-2.854-1.236-3.274-1.236-3.274-1.236a8.852,8.852,0,0,0-1.632-1.014c-.169-1.169-.275-1.879-.275-1.879s-3.945-15.656-6.9-24.86c-1.98-6.147-4.829-9.175-6.51-10.494-.749-1.3-1.241-2.144-1.241-2.144-.324-1.13-2.1-3.675-2.555-3.738-.072-.116-.126-.174-.155-.174a.565.565,0,0,0-.285.043c-.831-4.134-1.314-9.315-.043-13.831a15.265,15.265,0,0,0,5.573-11.764q0-.1,0-.2v-.208a15.2,15.2,0,0,0-3.588-9.8l-.164-.184a1.286,1.286,0,0,0,.126-.1,2.589,2.589,0,0,0,.913-2.492,17.078,17.078,0,0,0-1.314-2.535,16.418,16.418,0,0,1-.536-2.067,6.374,6.374,0,0,0-1.521-2.651l.072.193a9.177,9.177,0,0,0-8.079-2.714c-2.178.348-4.206,1.362-6.394,1.676-1.569.222-3.168.077-4.747.237a12.319,12.319,0,0,0-4.211,1.217,2.414,2.414,0,0,0-.893.657,3.535,3.535,0,0,0-.444,1.241c-.536,1.956-2.236,3.351-3.467,4.984a11.662,11.662,0,0,0-2.337,6.442,5.041,5.041,0,0,0,.169,1.763c.106.343.27.666.348,1.014.241,1.062-.314,2.12-.584,3.173a6.177,6.177,0,0,0,.343,4.028c1.908,4.269,8.171,5.694,9.475,10.175a12.463,12.463,0,0,0,3.134.966c.087.444.164.893.227,1.347a.363.363,0,0,0-.082.048c-1.69,1.647-2.11,4.829-2.11,4.829l-.2.164c-.691.57-3.052,2.482-5.186,3.955-2.535,1.753-6.761,7.625-9.716,9.378s-5.389,12.556-4.752,16.482,3.274,14.937,2.217,18.954,1.584,22.354,1.584,22.354a27,27,0,0,1,5.177,1.536l-.053.8-.159,2.415s-4.786,17.308-2.955,30.631-.845,14.7-.845,14.7.56,5.906-.845,7.968-1.69,6.592-1.69,6.592-.14,10.165.14,13.039.42,8.108-.565,9.344-2.815,9.335-2.675,11.807-3.52,8.108-1.55,15.386-5.795,7.418-5.795,7.418.99,11.107,3.1,14.285l.309.454c-.053.184-.106.377-.164.584-.8,2.9-1.888,7.471-1.13,8.577,1.125,1.652,1.69,1.371,1.69,1.371l.42,7.418s8.451,7.142,14.932,6.872,5.211-6.872,5.211-6.872l-5.52-14.314-.188-.483,6.133-11.59s1.69-5.08,2.11-6.867,2.714-8.118,2.714-8.118,5.795-13.734,5.916-15.386.565-10.571,1.69-12.363,4.225-12.073,4.225-12.073l.077.068a4.071,4.071,0,0,1,1.053,4.052c-.71,2.608-.285,7.963-.285,7.963a54.177,54.177,0,0,1-.845,6.872c-.565,2.337-.7,21.427.285,25.957.787,3.627.763,10.416.724,12.986-.662,2.728-1.241,6.118-.164,6.519,1.835.691,11.131.551,11.131.551s3.941-1.376,9.3,3.434,21.828-1.371,21.828-1.371,5.071-1.376-4.931-5.356c-6.978-2.777-11.484-4.626-14.429-6.606.068-.13.14-.261.2-.4,0,0-4.085-3.863-.705-10.711a29.827,29.827,0,0,0,3.24-12.638l.565-23.078L454.471,392l-1.309-32.152.232-.077c.222,5.911,1.376,19.983,7.418,17.254,7.606-3.434,1.125-12.363,1.125-12.363l-3.414-6.655,1.019-.348-3.82-12.343a27.84,27.84,0,0,1-.145-7.277,28.833,28.833,0,0,0-.087-4.25c5-.874,9.793-1.8,10.653-1.589,1.014.246,6.688.295,8.919.3-.729.57-1.313,1.135-1.313,1.135l9.084,6.114s3.081-1.685,3.723-3.472a4.008,4.008,0,0,0,1.7-.908c.1,2.11.657,4.395,2.608,4.448a3.38,3.38,0,0,0,1.42-.28l14.854-2.941-1.275,7.963.889,1.579c-.449,6.717-.966,13.85-1.42,20.123l-.208,1.371.106.024c-.705,9.658-1.27,16.974-1.27,16.974a8.9,8.9,0,0,1,3.7-3.723l.1,14.333s.744,22.663.744,25.754.1,9.991.1,9.991,1.589,8.446,2.535,11.228,1.69,15.453,1.69,15.453,2.221,3.5,1.27,4.829,3.7,4.221,3.7,4.221-2.96,4.018-3.173,6.7c-.024.309.28.637.831.966-.174.14-.353.28-.551.415a9.648,9.648,0,0,1-6.4,1.294c-8.243-.724-14.053,6.9-8.982,8.446S519.8,486.4,519.8,486.4s4.607-2.873,8.209-1.579c-.053,3.023.1,5.795.121,6.162l-.043.034c-2.154,1.932-6.278,5.254-10.305,6.611-5.795,1.956-7.079,9.89.42,10.919s18.486-1.236,18.486-1.236,5.7-4.221,10.035-5.148,8.031-2.989,7.292-5.462c-.483-1.579-1.724-5.718-2.564-8.5q-.073-.251-.145-.483c.13-.29.261-.589.381-.9,0,0-2.216-11.537-.42-14.42s.845-31.732.845-31.732-3.066-7.311-1.478-11.74-2.535-10.716-2.535-10.716.449-12.6,1.656-19.621l.159-.869a39.563,39.563,0,0,0,5.892-2.275s1.058-15.869,1.69-19.471c.063-.338.15-.884.256-1.594l.483-2.545h0l.57-2.9h0l1.932-9.876,3.487-4.51,8.982-9.175S575.369,340.53,574.311,331.359ZM435.792,274.7l-.068.048a.838.838,0,0,1-.024-.106A.434.434,0,0,0,435.792,274.7Zm88.745,11.247-.348.758,1.27-1.265-1.724,1.932.58-1.217Zm-8.577,17.723c-.333.884-.691,1.84-1.062,2.835l.681-2.033Z" transform="translate(-155.59 860.853)"/>
              <path id="Path_30" data-name="Path 30" class="cls-10" d="M595.737,443.327s-1.183,7.876,2.366,7.978,5.92-6.075,5.92-6.075l-1.449-4.94Z" transform="translate(-263.081 750.087)"/>
              <path id="Path_31" data-name="Path 31" class="cls-11" d="M595.737,443.327s-1.183,7.876,2.366,7.978,5.92-6.075,5.92-6.075l-1.449-4.94Z" transform="translate(-263.081 750.087)"/>
              <path id="Path_32" data-name="Path 32" class="cls-12" d="M413.255,771.1c-6.316.275-14.555-6.862-14.555-6.862l-.41-7.413s-.546.275-1.647-1.371c-.739-1.106.324-5.689,1.1-8.572.377-1.41.686-2.415.686-2.415l13.86,3.709.662,1.753,5.38,14.3S419.567,770.827,413.255,771.1Z" transform="translate(-160.1 592.799)"/>
              <path id="Path_33" data-name="Path 33" class="cls-12" d="M518.49,739.264s-16.057,6.176-21.248,1.372-9.059-3.434-9.059-3.434-9.059.14-10.846-.55c-1.053-.4-.483-3.834.174-6.568.444-1.888.927-3.448.927-3.448s15.782-5.356,18.254-2.062a11.836,11.836,0,0,0,2.632,2.511c2.859,2.067,7.326,3.941,14.391,6.824C523.43,737.887,518.49,739.264,518.49,739.264Z" transform="translate(-201.653 603.641)"/>
              <path id="Path_34" data-name="Path 34" class="cls-13" d="M529.079,496.35l4.39,8.784s6.317,8.924-1.1,12.353-7.273-19.761-7.273-19.761Z" transform="translate(-226.653 721.099)"/>
              <path id="Path_35" data-name="Path 35" class="cls-14" d="M495.25,338.61s4.8,2.2,7.688,11.392,6.727,24.846,6.727,24.846,2.608,17.7,2.192,22.1a28.49,28.49,0,0,0,.14,7.273l3.7,12.353-7.413,2.608L496.9,375.533Z" transform="translate(-211.218 802.664)"/>
              <path id="Path_36" data-name="Path 36" class="cls-4" d="M495.25,338.61s4.8,2.2,7.688,11.392,6.727,24.846,6.727,24.846,2.608,17.7,2.192,22.1a28.49,28.49,0,0,0,.14,7.273l3.7,12.353-7.413,2.608L496.9,375.533Z" transform="translate(-211.218 802.664)"/>
              <path id="Path_37" data-name="Path 37" class="cls-6" d="M413.72,748.194l.662,1.753-.811,1.55c-3.158,1.371-10.981.275-10.981.275s-1.449-1.84-3.429-4.868c.377-1.41.686-2.415.686-2.415Z" transform="translate(-161.531 592.789)"/>
              <path id="Path_38" data-name="Path 38" class="cls-6" d="M500.589,727.732c-4,9.069-17.612,5.7-21.393,4.568-.623-.188-.966-.314-.966-.314s.024-.739.034-1.9c.444-1.888.927-3.448.927-3.448s15.782-5.355,18.254-2.062a11.838,11.838,0,0,0,2.632,2.511A4.654,4.654,0,0,0,500.589,727.732Z" transform="translate(-202.417 603.641)"/>
              <path id="Path_39" data-name="Path 39" class="cls-15" d="M455.63,580.372c-3.293,6.857.691,10.706.691,10.706-4,9.064-17.612,5.7-21.393,4.564-.623-.184-.966-.309-.966-.309s.275-9.475-.686-14-.826-23.6-.275-25.937a55.214,55.214,0,0,0,.821-6.867s-.41-5.351.275-7.958a4.109,4.109,0,0,0-1.024-4.047l-.072-.073s-3.018,10.3-4.119,12.073-1.507,10.706-1.647,12.353-5.766,15.376-5.766,15.376-2.192,6.312-2.6,8.094-2.062,6.867-2.062,6.867l-6.616,12.768c-3.158,1.371-10.981.275-10.981.275s-1.507-1.932-3.569-5.08-3.018-14.27-3.018-14.27,7.548-.14,5.626-7.413,1.647-12.9,1.512-15.376,1.647-10.566,2.608-11.8.821-6.452.546-9.335-.135-13.039-.135-13.039.275-4.53,1.647-6.587.826-7.963.826-7.963,2.6-1.372.821-14.685,2.9-30.607,2.9-30.607l.159-2.415.251-3.912s39.256-2.472,42.414.546a10.412,10.412,0,0,1,2,2.873,28.589,28.589,0,0,1,2.27,7.306l1.647,41.588,1.647,30.607-.551,23.059A30.654,30.654,0,0,1,455.63,580.372Z" transform="translate(-158.149 739.473)"/>
              <path id="Path_40" data-name="Path 40" class="cls-6" d="M486.77,538.42l-4.119,89.213-4.945,8.132c-.623-.184-.966-.309-.966-.309s.275-9.475-.686-14-.826-23.6-.275-25.937a55.222,55.222,0,0,0,.821-6.867s-.41-5.351.275-7.958a4.11,4.11,0,0,0-1.024-4.047l.068-.483Z" transform="translate(-200.927 699.345)"/>
              <path id="Path_41" data-name="Path 41" class="cls-6" d="M406.85,733.421s10.706-4.254,12.353-2.9-12.623,3.429-12.623,3.429Z" transform="translate(-165.368 600.149)"/>
              <path id="Path_42" data-name="Path 42" class="cls-6" d="M505.923,713.5c-.41.14-10.841,3.863-9.88,7.823S505.923,713.5,505.923,713.5Z" transform="translate(-211.596 608.813)"/>
              <path id="Path_43" data-name="Path 43" class="cls-13" d="M449.07,287.585s3.5,8.441,1.647,12.768,19.968,11.735,19.968,11.735-6.379-16.472-.2-25.739S449.07,287.585,449.07,287.585Z" transform="translate(-187.339 831.664)"/>
              <path id="Path_44" data-name="Path 44" class="cls-16" d="M678.413,781.169c-4.221.927-9.779,5.148-9.779,5.148s-10.706,2.265-18.018,1.236-6.07-8.958-.41-10.914c3.926-1.352,7.949-4.689,10.049-6.6.927-.855,1.478-1.449,1.478-1.449l20.49-4.119s.333,1.145.8,2.724c.821,2.786,2.033,6.92,2.5,8.494C686.236,778.185,682.634,780.242,678.413,781.169Z" transform="translate(-288.932 582.458)"/>
              <path id="Path_45" data-name="Path 45" class="cls-16" d="M657.108,749.559s-8.649.927-12.252-1.13-8.75,1.236-8.75,1.236-14.826-.309-19.766-1.854.72-9.175,8.75-8.441a9.224,9.224,0,0,0,6.244-1.294A6.578,6.578,0,0,0,634.054,734l17.385,1.029,2.415,6.162Z" transform="translate(-272.877 598.213)"/>
              <path id="Path_46" data-name="Path 46" class="cls-6" d="M672.154,744s-20.205-3.3-22.784-5.925A6.577,6.577,0,0,0,652.089,734l17.385,1.029,2.415,6.162Z" transform="translate(-290.911 598.213)"/>
              <path id="Path_47" data-name="Path 47" class="cls-17" d="M634.52,513.9l.208,30.158s.719,22.649.719,25.739.1,9.982.1,9.982,1.545,8.441,2.472,11.223,1.647,15.453,1.647,15.453,2.163,3.5,1.236,4.829,3.6,4.221,3.6,4.221-2.9,4.018-3.086,6.693,23.054,6.476,23.054,6.476l-9.055-92.85-7.21-23.262Z" transform="translate(-283.233 712.717)"/>
              <path id="Path_48" data-name="Path 48" class="cls-6" d="M634.52,513.9l.208,30.158s.719,22.649.719,25.739.1,9.982.1,9.982,1.545,8.441,2.472,11.223,1.647,15.453,1.647,15.453,2.163,3.5,1.236,4.829,3.6,4.221,3.6,4.221-2.9,4.018-3.086,6.693,23.054,6.476,23.054,6.476l-9.055-92.85-7.21-23.262Z" transform="translate(-283.233 712.717)"/>
              <path id="Path_49" data-name="Path 49" class="cls-6" d="M698.774,767.218c-6.727,16.038-22.726,3.661-22.726,3.661s0-.309-.039-.84c.927-.855,1.478-1.449,1.478-1.449l20.49-4.119S698.311,765.639,698.774,767.218Z" transform="translate(-304.686 582.458)"/>
              <path id="Path_50" data-name="Path 50" class="cls-17" d="M682.061,631.953c-6.592,16.9-22.958,4.221-22.958,4.221s-.517-8.75.517-12.763-1.135-16.062-1.135-16.062-1.236-10.706-2.366-13.174-1.029-7.413-1.029-7.823.411-3.709-.517-5.974-1.449-7.823-1.449-7.823A82.55,82.55,0,0,0,652.2,560.1l-3.192-15.936-5.766-32.635,1.8-.309,32.273-5.66s6.075,30.906,4.013,34.074a13.294,13.294,0,0,0-1.159,4.177c-1.178,7.012-1.618,19.6-1.618,19.6s4.013,6.278,2.472,10.706,1.449,11.735,1.449,11.735.927,28.825-.826,31.708S682.061,631.953,682.061,631.953Z" transform="translate(-287.742 716.337)"/>
              <path id="Path_51" data-name="Path 51" class="cls-18" d="M691.489,308.936s-29.236,20.587-22.649,10.291c3.549-5.544,2.9-12.6,1.507-17.935a42.326,42.326,0,0,0-2.9-7.867s24.841-10.566,21.548-1.1a17.743,17.743,0,0,0-.966,6.877A18.351,18.351,0,0,0,691.489,308.936Z" transform="translate(-300.26 828.634)"/>
              <path id="Path_52" data-name="Path 52" class="cls-18" d="M592.035,426.85s-12.353-3.569-14.41-.068.618,11.184,4.346,12.421,12.285-4.187,12.285-4.187Z" transform="translate(-253.444 757.867)"/>
              <path id="Path_53" data-name="Path 53" class="cls-10" d="M618.548,416l-5.148,4.737s-8.958.821-11.532.2c0,0,2.371,15.854-1.029,17.81l20.794-4.221Z" transform="translate(-265.817 762.647)"/>
              <path id="Path_54" data-name="Path 54" class="cls-6" d="M618.548,416l-5.148,4.737s-8.958.821-11.532.2c0,0,2.371,15.854-1.029,17.81l20.794-4.221Z" transform="translate(-265.817 762.647)"/>
              <path id="Path_55" data-name="Path 55" class="cls-6" d="M467.543,257.889a15.453,15.453,0,0,1-15.453,15.453c-7.929-3.81-15.453-6.91-15.453-15.453a15.453,15.453,0,1,1,30.882,0Z" transform="translate(-180.903 852.71)"/>
              <path id="Path_56" data-name="Path 56" class="cls-13" d="M467.616,257.724a15.424,15.424,0,1,1-3.5-9.769A15.424,15.424,0,0,1,467.616,257.724Z" transform="translate(-180.976 852.461)"/>
              <path id="Path_57" data-name="Path 57" class="cls-6" d="M471.48,465.218a34.927,34.927,0,0,1-4.786,2.482s-7.823-1.135-8.953.2-11.107,1.854-11.107,1.854-15.236-.72-17.5-2.675a9.271,9.271,0,0,0-2.313-1.371l.251-3.912s39.256-2.473,42.414.546a10.41,10.41,0,0,1,1.994,2.873Z" transform="translate(-175.834 739.458)"/>
              <path id="Path_58" data-name="Path 58" class="cls-14" d="M463.963,383.532c-.309,1.748-6.693,4.423-6.693,4.423s-7.823-1.13-8.953.208-11.107,1.854-11.107,1.854-15.236-.724-17.5-2.68-7.311-2.9-7.311-2.9-2.574-18.322-1.54-22.335-1.545-15.033-2.163-18.945,1.748-14.719,4.631-16.467,7-7.62,9.47-9.368c2.081-1.473,4.38-3.38,5.051-3.955l.2-.164s.415-3.192,2.062-4.829,16.776,10.4,16.776,10.4.106.927,1.135-.821c.232-.391,2.226,2.487,2.574,3.7,0,0,8.234,14.415,8.75,17.385s2.675,12.662,3.086,15.028c.106.608.28,2.743.483,5.6.039.56.072,1.154.116,1.772.3,4.742.633,10.8.831,15.376,0,.522.043,1.024.058,1.507A51.239,51.239,0,0,1,463.963,383.532Z" transform="translate(-166.41 818.377)"/>
              <path id="Path_59" data-name="Path 59" class="cls-6" d="M415,387.21s5.66,6.9,7.514,6.9S415,387.21,415,387.21Z" transform="translate(-169.722 777.534)"/>
              <path id="Path_60" data-name="Path 60" class="cls-6" d="M430.969,417.91S421.7,428,422.938,429.852,430.969,417.91,430.969,417.91Z" transform="translate(-173.768 761.659)"/>
              <path id="Path_61" data-name="Path 61" class="cls-6" d="M425.62,442.726s10.624-11.633,11.107-15.646Z" transform="translate(-175.213 756.918)"/>
              <path id="Path_62" data-name="Path 62" class="cls-6" d="M453.33,447.673s12.251-6.486,13.28-11.633S453.33,447.673,453.33,447.673Z" transform="translate(-189.542 752.792)"/>
              <path id="Path_63" data-name="Path 63" class="cls-6" d="M483.7,330.142l-1.7,4.114,2.83,1.338,2.782,7.775s7.669,15.337,7.36,23.315,1.391,19.968,1.391,19.968l4.423-.821L498.7,362.367A33.848,33.848,0,0,0,496,351.835c-3.535-8.094-10.112-23.035-10.527-23.035-.565,0-.169.208-.169.208Z" transform="translate(-204.366 807.737)"/>
              <path id="Path_64" data-name="Path 64" class="cls-19" d="M484.55,329.288l-1.7,4.119,2.835,1.338,2.777,7.775s7.669,15.337,7.36,23.315,1.391,19.968,1.391,19.968l4.428-.821-2.091-23.465a33.717,33.717,0,0,0-2.69-10.532c-3.535-8.1-10.112-23.035-10.523-23.035-.57,0-.174.208-.174.208Z" transform="translate(-204.806 808.177)"/>
              <path id="Path_65" data-name="Path 65" class="cls-13" d="M579.213,440.654c-2.154-.164-7.321-2.777-9.373-3.863l-.869-.483.106-7.973a14,14,0,0,1,1.574-.8c2.743-1.2,8.369-2.825,11.189,2.415C585.645,436.979,581.941,440.837,579.213,440.654Z" transform="translate(-249.337 757.31)"/>
              <path id="Path_66" data-name="Path 66" class="cls-6" d="M464.031,247.9a2.285,2.285,0,0,1-.72.295c-1.792.391-3.829-1.149-5.365-.159-.937.608-1.154,1.869-1.28,2.98q-.328,2.9-.657,5.756a7.1,7.1,0,0,1-.425,1.985c-.758,1.734-2.84,2.55-4.737,2.521a2.825,2.825,0,0,1-2.043-.676c-.333-.338-.512-.811-.879-1.12-2.415-2.023-3.149,2.936-2.511,4.346,1.024,2.3,4.66,4.525,3.134,7.451a2.792,2.792,0,0,1-1.12,1.125,15.453,15.453,0,1,1,16.6-24.5Z" transform="translate(-180.887 852.516)"/>
              <path id="Path_67" data-name="Path 67" class="cls-20" d="M442.193,251.984c.362.3.546.777.879,1.116a2.83,2.83,0,0,0,2.043.676c1.9.029,3.979-.782,4.733-2.526a6.877,6.877,0,0,0,.43-1.98l.657-5.756c.126-1.111.338-2.371,1.28-2.98,1.536-.966,3.574.551,5.365.159a2.622,2.622,0,0,0,1.932-3.023,17.015,17.015,0,0,0-1.275-2.53,16.539,16.539,0,0,1-.526-2.062c-1-3.747-5.4-5.853-9.224-5.225-2.125.353-4.1,1.367-6.23,1.676-1.526.222-3.086.077-4.626.241a11.677,11.677,0,0,0-4.1,1.212,2.386,2.386,0,0,0-.869.657,3.627,3.627,0,0,0-.435,1.236c-.517,1.932-2.178,3.356-3.38,4.984a11.875,11.875,0,0,0-2.289,6.428,5.153,5.153,0,0,0,.164,1.763c.1.338.261.666.338,1.014.237,1.058-.3,2.115-.57,3.168a6.336,6.336,0,0,0,.338,4.028c1.854,4.264,7.963,5.689,9.233,10.165a10.14,10.14,0,0,0,3.593.966,3.466,3.466,0,0,0,3.168-1.618c1.521-2.9-2.11-5.148-3.134-7.447C439.04,254.91,439.759,249.955,442.193,251.984Z" transform="translate(-175.565 859.992)"/>
              <path id="Path_68" data-name="Path 68" class="cls-6" d="M689.042,292.329a17.742,17.742,0,0,0-.966,6.877c-.744.633-1.555-1.26-2.415-.773-2.357,1.362-5.08,4.6-8,4.6a16.018,16.018,0,0,1-7.278-1.743,42.317,42.317,0,0,0-2.9-7.867S692.336,282.859,689.042,292.329Z" transform="translate(-300.281 828.634)"/>
              <path id="Path_69" data-name="Path 69" class="cls-18" d="M687.383,266.562A16.062,16.062,0,1,1,671.322,250.5,16.062,16.062,0,0,1,687.383,266.562Z" transform="translate(-293.957 848.225)"/>
              <path id="Path_70" data-name="Path 70" class="cls-21" d="M677.881,328.629s-3.023,3.293-3.434,3.564-9.175,37.184-9.33,37.614-10.436,33.76-10.436,33.76l-16.472,8.1,1.376-40.768,12.073-33.62s3.984-4.53,5.215-6.176,16.607-11.532,16.607-11.532l2.627,5.413Z" transform="translate(-285.141 812.51)"/>
              <path id="Path_71" data-name="Path 71" class="cls-6" d="M695.244,326.693l-18.94,13.56-.3-7.447c1.236-1.647,16.607-11.527,16.607-11.527Z" transform="translate(-304.681 811.625)"/>
              <path id="Path_72" data-name="Path 72" class="cls-21" d="M696.1,324.983l-18.94,13.56-.295-7.442c1.236-1.652,16.607-11.532,16.607-11.532Z" transform="translate(-305.131 812.51)"/>
              <path id="Path_73" data-name="Path 73" class="cls-10" d="M650.58,336.59l.633,3.313-4.235,4.3,3.38-7.567s-7.244,5.046-9.417,6.384-4.346,5.867-4.428,7.1-3.5,19.867-3.5,19.867-2.574,6.9-1.849,8.852-3.912,63.619-3.912,63.619a9.175,9.175,0,0,1,6.191-4.747l-1.652-36.441s2.009-24.242,2.11-24.551,4.684-14.362,4.684-14.362Z" transform="translate(-279.473 803.709)"/>
              <path id="Path_74" data-name="Path 74" class="cls-6" d="M654.084,344.3l-.328,6.761s-4.583,14.463-6.123,16.829-6.229,16.472-6.229,16.472l-2.642,24.5-4.53,2.062L632,406.818l3.709-23.663s7-19.968,8.031-22.03l5.162-10.875Z" transform="translate(-281.929 799.722)"/>
              <path id="Path_75" data-name="Path 75" class="cls-22" d="M653.208,343.45l-.323,6.761s-4.583,14.463-6.128,16.829-6.225,16.472-6.225,16.472l-2.627,24.5-4.53,2.057-2.265-4.114,3.709-23.663s7-19.973,8.026-22.03l5.2-10.861Z" transform="translate(-281.469 800.162)"/>
              <path id="Path_76" data-name="Path 76" class="cls-18" d="M566.31,447.906l8.852,6.128s6.244-3.5,2.608-5.766a16.123,16.123,0,0,0-8.031-2.608C568.57,445.66,566.31,447.906,566.31,447.906Z" transform="translate(-247.962 747.31)"/>
              <path id="Path_77" data-name="Path 77" class="cls-18" d="M579.312,425.978a1.362,1.362,0,0,0-.642,1.164c0,1.879.213,6.853,1.787,4.607,1.932-2.748,1.579-5.215,4.53-3.434a17.385,17.385,0,0,1,4.733,4.346l-.821-5.9S582.833,423.766,579.312,425.978Z" transform="translate(-254.353 757.909)"/>
              <path id="Path_78" data-name="Path 78" class="cls-6" d="M683,539.594a13.3,13.3,0,0,0-1.159,4.177c-18.051,5.413-31.259-6.032-31.259-6.032a157.523,157.523,0,0,1-3.911-16.467,53.654,53.654,0,0,1,.048-10.093l32.273-5.66S685.065,536.4,683,539.594Z" transform="translate(-289.407 716.357)"/>
              <path id="Path_79" data-name="Path 79" class="cls-10" d="M701.5,351.162c-.821,2.68-.512,8.132-.512,8.132l-7.413,35s-3.6,26.971-4.221,30.573-1.647,19.457-1.647,19.457c-21,10.3-37.184-3.7-37.184-3.7a157.813,157.813,0,0,1-3.912-16.472c-1.033-6.114,2.009-30.607,3.448-41.487.43-3.221.72-5.249.72-5.249l5.4-20.075s6.64-16.936,9.113-21.876,12.4-16.038,12.4-16.038c1.232-.782,3.2,1.98,4.665,4.5,1.106,1.9,1.932,3.67,1.932,3.67s12.353,5.351,14.2,8.21,1.545,8.75,1.753,9.059S702.329,348.487,701.5,351.162Z" transform="translate(-289.378 812.654)"/>
              <path id="Path_80" data-name="Path 80" class="cls-6" d="M676.751,339.148s.927,5.457-1.449,7.1c-2.294,1.594-19.37,35.171-20.432,37.266.43-3.226.719-5.254.719-5.254l5.4-20.07s6.645-16.936,9.113-21.881,12.406-16.038,12.406-16.038c1.231-.782,3.2,1.98,4.66,4.5C684.965,329.354,680.363,338.018,676.751,339.148Z" transform="translate(-293.755 812.215)"/>
              <path id="Path_81" data-name="Path 81" class="cls-10" d="M675.89,338.3s.922,5.457-1.449,7.1S655.077,380.567,654,382.663c.43-3.221.719-5.249.719-5.249l5.4-20.075s6.64-16.936,9.113-21.876,12.4-16.038,12.4-16.038c1.231-.782,3.2,1.98,4.665,4.5C684.1,328.5,679.5,337.168,675.89,338.3Z" transform="translate(-293.305 812.654)"/>
              <path id="Path_82" data-name="Path 82" class="cls-23" d="M633.672,415.018l-5.809,30.226v0l-.555,2.893v0l-1.251,6.5-5.336-1.13-2.487-.526L583.816,445.7l-2.53-.536-5.776-1.222,1.13-7.5.469-3.12,4.167-27.671Z" transform="translate(-226.589 785.244)"/>
              <path id="Path_83" data-name="Path 83" class="cls-18" d="M671.63,511.92s-13.691,4.94-10.706,10.808,22.132-4.53,22.132-4.53Z" transform="translate(-296.666 713.048)"/>
              <path id="Path_84" data-name="Path 84" class="cls-6" d="M703.8,599.1c0,.41.517,5.665,2.574,7.514S703.8,599.1,703.8,599.1Z" transform="translate(-319.056 667.968)"/>
              <path id="Path_85" data-name="Path 85" class="cls-6" d="M675.24,637.68s2.468,6.795,12.247,9.576S675.24,637.68,675.24,637.68Z" transform="translate(-304.288 648.019)"/>
              <path id="Path_86" data-name="Path 86" class="cls-6" d="M690.729,266.606a16.057,16.057,0,0,1-8.05,13.922,8.548,8.548,0,0,1-2.414-2.014,3.12,3.12,0,0,1-.826-3.023c.338-.816,1.231-1.333,1.449-2.178a3.206,3.206,0,0,0-.077-1.555c-.179-.8-.348-1.594-.522-2.386-.15-.676-.415-1.473-1.087-1.637s-1.231.4-1.758.811c-1.289,1.019-3.762,1.71-5.312.874s-1.116-3.632-1.367-5.143a.9.9,0,0,0-.338-.681,1.41,1.41,0,0,0-.7-.048,2.016,2.016,0,0,1-1.748-1.55,13.349,13.349,0,0,1-.28-2.487,2.774,2.774,0,0,0-1.111-2.149,3.433,3.433,0,0,0-1.83-.3l-3.028.034a16.062,16.062,0,0,1,28.975,9.523Z" transform="translate(-297.302 848.18)"/>
              <path id="Path_87" data-name="Path 87" class="cls-22" d="M674.87,263.911c.526-.415,1.106-.966,1.758-.806s.932.966,1.082,1.632l.522,2.381a3.236,3.236,0,0,1,.082,1.56c-.246.85-1.135,1.362-1.478,2.178a3.12,3.12,0,0,0,.826,3.018,8.693,8.693,0,0,0,4.969,2.97,3.65,3.65,0,0,0,1.55.034,4.588,4.588,0,0,0,2.55-2.313c3.192-4.974,5.94-10.426,6.5-16.308a10.46,10.46,0,0,0-.164-3.6,12.08,12.08,0,0,0-1.1-2.632,21.249,21.249,0,0,0-3.105-4.7,17.636,17.636,0,0,0-8.345-4.679,28.26,28.26,0,0,0-10.774-.845c-.966.111-1.893.27-2.844.333a28.63,28.63,0,0,1-3.583-.058l-7.108-.425a2.761,2.761,0,0,0,.483,2.579,4.628,4.628,0,0,1,1.043,2.492,5.127,5.127,0,0,1-1.193,2.415,2.377,2.377,0,0,0-.381,2.526,2.7,2.7,0,0,0,2.414.792l3.583-.039a3.424,3.424,0,0,1,1.821.314,2.782,2.782,0,0,1,1.111,2.149,14.2,14.2,0,0,0,.28,2.487,2.009,2.009,0,0,0,1.748,1.55,1.3,1.3,0,0,1,.7.053.889.889,0,0,1,.338.676c.251,1.512-.213,4.3,1.367,5.143S673.581,264.93,674.87,263.911Z" transform="translate(-294.299 852.817)"/>
              <path id="Path_88" data-name="Path 88" class="cls-6" d="M704.859,353.423a7.871,7.871,0,0,0-8.282,5.288c-1.932,5.5-5.153,15.424-4.346,19.345,1.135,5.558,2.472,14.825,2.472,14.825s5.867,3.38,2.9,6.79a19.231,19.231,0,0,0-3.81,8.239s-3.81,1.647-4.631,5.148-6.384,8.335-6.384,8.335l-8.335,8.34s13.792,14,16.574,14.719l8.543-9.987,10.088-13.382,8.75-9.175s2.057-4.829,1.029-14a67.024,67.024,0,0,0-5.046-17.911l.309-3.091S715.632,354.76,704.859,353.423Z" transform="translate(-303.875 795.028)"/>
              <path id="Path_89" data-name="Path 89" class="cls-10" d="M706.564,353.424a7.872,7.872,0,0,0-8.272,5.288c-1.932,5.5-5.153,15.424-4.346,19.345,1.13,5.558,2.468,14.825,2.468,14.825s5.867,3.38,2.9,6.79a19.192,19.192,0,0,0-3.805,8.238s-3.81,1.647-4.636,5.148-6.379,8.335-6.379,8.335l-8.34,8.34s13.792,14,16.574,14.719l8.543-9.987,10.064-13.382,8.75-9.175s2.062-4.829,1.029-14a67.318,67.318,0,0,0-5.042-17.911l.309-3.091S717.338,354.761,706.564,353.424Z" transform="translate(-304.759 795.027)"/>
              <path id="Path_90" data-name="Path 90" class="cls-6" d="M721.28,418.34s8.75,10.7,12.459,8.335S721.28,418.34,721.28,418.34Z" transform="translate(-328.095 761.437)"/>
              <path id="Path_91" data-name="Path 91" class="cls-6" d="M728.1,401.28c.927.309,8.548,10.914,12.459,9.658S728.1,401.28,728.1,401.28Z" transform="translate(-331.622 770.258)"/>
              <path id="Path_92" data-name="Path 92" class="cls-6" d="M732.58,439s.517,6.075,6.795,5.249S732.58,439,732.58,439Z" transform="translate(-333.938 750.754)"/>
              <path id="Path_93" data-name="Path 93" class="cls-6" d="M617.385,301.83,613.99,309.4l4.24-4.3Z" transform="translate(-246.486 838.928)"/>
              <path id="Path_94" data-name="Path 94" class="cls-21" d="M617.385,300.98l-3.395,7.567,4.24-4.3Z" transform="translate(-246.486 839.367)"/>
              <path id="Path_95" data-name="Path 95" class="cls-24" d="M585.026,475.332l-2.53-.536-4.646-8.726.469-3.12Z" transform="translate(-227.799 755.615)"/>
              <path id="Path_96" data-name="Path 96" class="cls-24" d="M673.609,487.65l-.555,2.893v0l-6.587,5.375-2.487-.526Z" transform="translate(-272.335 742.842)"/>
              <path id="Path_97" data-name="Path 97" class="cls-6" d="M469.913,396.907c-1.275.212-2.511.406-3.641.551-6.278.826-21.21-6.587-21.21-6.587s-18.22-15.236-23.47-29.646,6.278-16.574,6.278-16.574c4.346-2.473,13.8,4.423,15.134,5.558a8.6,8.6,0,0,1,2.366,5.867c-.106,1.854,3.091,4.221,3.091,4.221s5.457,9.47,6.795,10.5,1.647,1.956,2.057,3.709,4.013,3.192,5.558,3.086,3.38.517,3.38,1.338c0,.662,1.512.99,2.753,1.1C469.372,385.3,469.735,392.218,469.913,396.907Z" transform="translate(-172.422 799.815)"/>
              <path id="Path_98" data-name="Path 98" class="cls-6" d="M470.74,393.637c-.966.155-1.893.295-2.762.41-6.278.826-21.2-6.587-21.2-6.587s-18.22-15.236-23.47-29.646,6.278-16.574,6.278-16.574c4.346-2.473,13.792,4.423,15.13,5.558a8.622,8.622,0,0,1,2.371,5.867c-.1,1.854,3.086,4.221,3.086,4.221s5.457,9.47,6.795,10.5,1.647,1.956,2.062,3.709,4.013,3.187,5.558,3.086,3.38.517,3.38,1.338c0,.483.86.806,1.816.966.039.56.072,1.154.116,1.772C470.213,383,470.542,389.059,470.74,393.637Z" transform="translate(-173.307 801.579)"/>
              <path id="Path_99" data-name="Path 99" class="cls-6" d="M570.651,428.84l-.391,9.253h-.42l-.869-.483.106-7.973A14,14,0,0,1,570.651,428.84Z" transform="translate(-249.337 756.008)"/>
              <path id="Path_100" data-name="Path 100" class="cls-14" d="M427.871,342.943s-11.527,2.163-6.278,16.574,23.47,29.651,23.47,29.651,14.927,7.408,21.21,6.587,15.849-2.984,17.085-2.675,9.576.309,9.576.309l.41-9.658-9.658-.517-4.94-1.029s-1.753-1.449-2.782-1.236-3.187-1.236-3.187-1.236a6.154,6.154,0,0,0-2.9-1.338c-1.246,0-3.6-.309-3.6-1.13s-1.854-1.449-3.38-1.338-5.172-1.338-5.6-3.11-.72-2.675-2.057-3.7-6.795-10.5-6.795-10.5-3.192-2.366-3.091-4.216a8.639,8.639,0,0,0-2.366-5.872C441.653,347.366,432.188,340.475,427.871,342.943Z" transform="translate(-172.422 800.698)"/>
              <path id="Path_101" data-name="Path 101" class="cls-6" d="M493.731,412.15s-4.428,4.428-3.3,5.249Z" transform="translate(-208.631 764.638)"/>
              <path id="Path_102" data-name="Path 102" class="cls-6" d="M502.459,419.4s-5.766,4.428-4.221,4.737S502.459,419.4,502.459,419.4Z" transform="translate(-212.627 760.889)"/>
              <path id="Path_103" data-name="Path 103" class="cls-6" d="M487,433c.826.415,13.072,7.727,17.708,7.62Z" transform="translate(-206.952 753.857)"/>
              <path id="Path_104" data-name="Path 104" class="cls-6" d="M468.336,320.5s-2.163,7.1-2.989,7.1c-.647,0-11.513-8.8-16.047-12.5l.2-.164s.41-3.192,2.057-4.829S468.336,320.5,468.336,320.5Z" transform="translate(-187.458 817.477)"/>
              <path id="Path_105" data-name="Path 105" class="cls-14" d="M467.476,318.793s-2.159,7.1-2.984,7.1c-.652,0-11.517-8.8-16.052-12.5l.2-.164s.415-3.192,2.062-4.829S467.476,318.793,467.476,318.793Z" transform="translate(-187.013 818.362)"/>
              <path id="Path_106" data-name="Path 106" d="M427.49,282.54h0c1.449,3.308,5.438,4.911,7.751,7.548C433.864,286.848,429.842,285.259,427.49,282.54Z" transform="translate(-176.18 831.657)"/>
              <path id="Path_107" data-name="Path 107" d="M451.265,295.331a3.471,3.471,0,0,1-3.168,1.618,9.245,9.245,0,0,1-3.178-.811,6.178,6.178,0,0,1,.821,1.748,10.093,10.093,0,0,0,3.593.966,3.436,3.436,0,0,0,3.168-1.618c.922-1.763-.039-3.269-1.164-4.694A3.067,3.067,0,0,1,451.265,295.331Z" transform="translate(-185.193 826.486)"/>
              <path id="Path_108" data-name="Path 108" d="M472.4,240.439a16.557,16.557,0,0,0-1.275-2.53,15.8,15.8,0,0,1-.526-2.067,6.4,6.4,0,0,0-1.483-2.651,6.155,6.155,0,0,1,.246.729A16.6,16.6,0,0,0,469.9,236a16.561,16.561,0,0,1,1.275,2.53,2.622,2.622,0,0,1-1.932,3.023c-1.787.391-3.825-1.154-5.36-.159-.942.6-1.159,1.864-1.285,2.975q-.324,2.9-.657,5.761a6.9,6.9,0,0,1-.425,1.98c-.758,1.739-2.84,2.555-4.737,2.526a2.844,2.844,0,0,1-2.038-.676,13.461,13.461,0,0,0-.884-1.12c-2.415-2.028-3.149,2.931-2.511,4.346a8.749,8.749,0,0,0,1.178,1.772c-.531-1.594.212-6.181,2.569-4.216a12.466,12.466,0,0,1,.879,1.12,2.864,2.864,0,0,0,2.043.676c1.9.029,3.979-.787,4.737-2.526a6.907,6.907,0,0,0,.425-1.985q.328-2.9.657-5.756c.126-1.111.343-2.371,1.28-2.975,1.54-.995,3.578.551,5.365.155A2.617,2.617,0,0,0,472.4,240.439Z" transform="translate(-188.403 857.176)"/>
              <path id="Path_109" data-name="Path 109" class="cls-6" d="M685.088,275.568a3.733,3.733,0,0,1-1.55-.039,8.692,8.692,0,0,1-4.964-2.965,3.109,3.109,0,0,1-.826-3.023c.338-.816,1.227-1.328,1.449-2.178a3.235,3.235,0,0,0-.082-1.56l-.521-2.381c-.15-.676-.41-1.473-1.082-1.632s-1.231.391-1.758.806c-1.289,1.019-3.767,1.714-5.312.874s-1.116-3.632-1.367-5.143a.9.9,0,0,0-.338-.676,1.376,1.376,0,0,0-.705-.053,2.021,2.021,0,0,1-1.748-1.55,13.711,13.711,0,0,1-.275-2.487,2.787,2.787,0,0,0-1.116-2.149,3.472,3.472,0,0,0-1.821-.314l-3.583.039c-.884,0-1.932-.058-2.415-.792a2.406,2.406,0,0,1,.382-2.526,5,5,0,0,0,1.193-2.415,4.542,4.542,0,0,0-1.043-2.492,4.467,4.467,0,0,1-.608-1.381l-1.029-.063a2.779,2.779,0,0,0,.483,2.579,4.607,4.607,0,0,1,1.043,2.487,5.126,5.126,0,0,1-1.193,2.415,2.365,2.365,0,0,0-.377,2.526,2.7,2.7,0,0,0,2.415.8l3.583-.043a3.467,3.467,0,0,1,1.821.319,2.772,2.772,0,0,1,1.115,2.149,13.349,13.349,0,0,0,.28,2.487,2,2,0,0,0,1.748,1.545,1.414,1.414,0,0,1,.7.053.908.908,0,0,1,.338.681c.251,1.507-.212,4.3,1.367,5.143s4.042.145,5.312-.874c.526-.415,1.111-.966,1.763-.811s.932.966,1.077,1.632l.526,2.386a3.231,3.231,0,0,1,.077,1.56c-.241.845-1.135,1.362-1.473,2.173a3.118,3.118,0,0,0,.826,3.023,8.692,8.692,0,0,0,5,2.965,3.732,3.732,0,0,0,1.55.039,3.641,3.641,0,0,0,2.009-1.526A2.685,2.685,0,0,1,685.088,275.568Z" transform="translate(-294.177 852.894)"/>
              <ellipse id="Ellipse_3" data-name="Ellipse 3" class="cls-1" cx="11.672" cy="1.792" rx="11.672" ry="1.792" transform="translate(157.693 1338.153)"/>
              <ellipse id="Ellipse_4" data-name="Ellipse 4" class="cls-1" cx="11.672" cy="1.792" rx="11.672" ry="1.792" transform="translate(565.232 1291.571)"/>
              <ellipse id="Ellipse_5" data-name="Ellipse 5" class="cls-1" cx="33.804" cy="5.186" rx="33.804" ry="5.186" transform="translate(424.106 1360.372)"/>
              <ellipse id="Ellipse_6" data-name="Ellipse 6" class="cls-1" cx="26.367" cy="4.047" rx="26.367" ry="4.047" transform="translate(527.638 1339.539)"/>
              <ellipse id="Ellipse_7" data-name="Ellipse 7" class="cls-1" cx="44.713" cy="6.862" rx="44.713" ry="6.862" transform="translate(504.95 1377.047)"/>
              <ellipse id="Ellipse_8" data-name="Ellipse 8" class="cls-1" cx="33.804" cy="5.186" rx="33.804" ry="5.186" transform="translate(85.603 1384.759)"/>
              <path id="Path_110" data-name="Path 110" class="cls-23" d="M255,631.85s1.323,1.729-.608,4.346-3.525,4.829-2.9,6.442c0,0,2.9-4.829,5.312-4.916S257.61,634.767,255,631.85Z" transform="translate(-85.101 651.034)"/>
              <path id="Path_111" data-name="Path 111" class="cls-6" d="M255.089,631.85a1.932,1.932,0,0,1,.27.541c2.318,2.724,3.549,5.259,1.323,5.312-2.072.058-4.559,3.767-5.153,4.7a1.794,1.794,0,0,0,.068.212s2.9-4.829,5.312-4.916S257.7,634.767,255.089,631.85Z" transform="translate(-85.193 651.034)"/>
              <path id="Path_112" data-name="Path 112" class="cls-25" d="M263.669,635.991c0,.609-.072,1.1-.155,1.1s-.155-.483-.155-1.1.087-.319.169-.319S263.669,635.383,263.669,635.991Z" transform="translate(-91.31 649.095)"/>
              <path id="Path_113" data-name="Path 113" class="cls-25" d="M264.625,637.47c-.531.29-1,.483-1.038.391s.357-.367.893-.662.324-.077.362,0S265.161,637.175,264.625,637.47Z" transform="translate(-91.427 648.345)"/>
              <path id="Path_114" data-name="Path 114" class="cls-23" d="M241.262,631.85s-1.323,1.729.608,4.346,3.53,4.829,2.9,6.442c0,0-2.9-4.829-5.288-4.916S238.635,634.767,241.262,631.85Z" transform="translate(-78.349 651.034)"/>
              <path id="Path_115" data-name="Path 115" class="cls-6" d="M241.251,631.85a2.131,2.131,0,0,0-.27.541c-2.318,2.724-3.549,5.259-1.323,5.312,2.072.058,4.559,3.767,5.158,4.7a1.835,1.835,0,0,1-.072.213s-2.9-4.829-5.288-4.916S238.624,634.767,241.251,631.85Z" transform="translate(-78.338 651.034)"/>
              <path id="Path_116" data-name="Path 116" class="cls-25" d="M239.35,635.991c0,.609.068,1.1.15,1.1s.155-.483.155-1.1-.087-.319-.169-.319S239.35,635.383,239.35,635.991Z" transform="translate(-78.895 649.095)"/>
              <path id="Path_117" data-name="Path 117" class="cls-25" d="M237.252,637.47c.536.29,1,.483,1.043.391s-.362-.367-.9-.662-.324-.077-.362,0S236.716,637.175,237.252,637.47Z" transform="translate(-77.643 648.345)"/>
              <ellipse id="Ellipse_9" data-name="Ellipse 9" class="cls-1" cx="13.826" cy="2.12" rx="13.826" ry="2.12" transform="translate(152.578 1302.654)"/>
              <path id="Path_118" data-name="Path 118" class="cls-26" d="M251.163,648.486l-.068.541-.092.763-.039.319-.092.763-.043.319-.092.763-1.058,8.692c-.092.773-1.357,1.376-2.9,1.376h-5.476c-1.526,0-2.791-.6-2.9-1.376l-1.058-8.692-.092-.763-.039-.319-.1-.763-.039-.319-.092-.763-.068-.541c-.053-.439.633-.806,1.5-.806h11.247C250.531,647.68,251.216,648.047,251.163,648.486Z" transform="translate(-77.641 642.848)"/>
              <path id="Path_119" data-name="Path 119" class="cls-27" d="M197.061,614.76l-.092.763H183.052l-.092-.763Z" transform="translate(-23.606 677.115)"/>
              <path id="Path_120" data-name="Path 120" class="cls-27" d="M197.07,617l-.092.763H183.327l-.1-.763Z" transform="translate(-23.746 675.957)"/>
              <path id="Path_121" data-name="Path 121" class="cls-27" d="M197.085,619.24l-.1.763H183.6l-.092-.763Z" transform="translate(-23.891 674.799)"/>
              <path id="Path_122" data-name="Path 122" class="cls-23" d="M1082.5,618s-1.651,7.688,5.694,8.6l.454-.855S1082.954,620.386,1082.5,618Z" transform="translate(-514.795 658.195)"/>
              <path id="Path_123" data-name="Path 123" class="cls-23" d="M1093.409,621.526l-1.709.362-.169.039s-4.559-3.7-4.5-11.957a20.381,20.381,0,0,0,2.178,3.443C1091.014,615.8,1093.066,618.991,1093.409,621.526Z" transform="translate(-517.219 662.348)"/>
              <path id="Path_124" data-name="Path 124" class="cls-23" d="M1097.085,619.272a1.072,1.072,0,0,1-.918.121c-4.385-1.024-2.9-15.313-2.9-15.313.242.111.483,1.932,1.516,4.279C1096.549,612.478,1098.495,618.239,1097.085,619.272Z" transform="translate(-520.32 665.393)"/>
              <path id="Path_125" data-name="Path 125" class="cls-23" d="M1113.519,618s.285,7.688-7.06,8.6l-.459-.869S1113.065,620.386,1113.519,618Z" transform="translate(-527.029 658.195)"/>
              <path id="Path_126" data-name="Path 126" class="cls-23" d="M1108.921,610a14.219,14.219,0,0,1-5.863,11.957l-.174-.039-1.7-.362c.338-2.535,2.414-5.722,4.2-8.113A18.574,18.574,0,0,1,1108.921,610Z" transform="translate(-524.536 662.332)"/>
              <path id="Path_127" data-name="Path 127" class="cls-23" d="M1101.743,618.534a2.666,2.666,0,0,1-.966.749h0a1.883,1.883,0,0,1-.362.121c-1.077.251-1.449-.526-1.391-1.85.1-2.352,1.579-6.432,2.9-9.489a11.857,11.857,0,0,1,2.753-3.974S1104.606,615.211,1101.743,618.534Z" transform="translate(-523.418 665.388)"/>
              <path id="Path_128" data-name="Path 128" class="cls-23" d="M1099.558,593.7s-4.9,17.385-.681,19.983S1100.639,595.236,1099.558,593.7Z" transform="translate(-522.46 670.761)"/>
              <path id="Path_129" data-name="Path 129" class="cls-6" d="M1082.5,618s-1.651,7.688,5.694,8.6l.454-.855S1082.954,620.386,1082.5,618Z" transform="translate(-514.795 658.195)"/>
              <path id="Path_130" data-name="Path 130" class="cls-6" d="M1093.409,621.526l-1.709.362-.169.039s-4.559-3.7-4.5-11.957a20.381,20.381,0,0,0,2.178,3.443C1091.014,615.8,1093.066,618.991,1093.409,621.526Z" transform="translate(-517.219 662.348)"/>
              <path id="Path_131" data-name="Path 131" class="cls-6" d="M1097.085,619.272a1.072,1.072,0,0,1-.918.121c-4.385-1.024-2.9-15.313-2.9-15.313.242.111.483,1.932,1.516,4.279C1096.549,612.478,1098.495,618.239,1097.085,619.272Z" transform="translate(-520.32 665.393)"/>
              <path id="Path_132" data-name="Path 132" class="cls-6" d="M1113.519,618s.285,7.688-7.06,8.6l-.459-.869S1113.065,620.386,1113.519,618Z" transform="translate(-527.029 658.195)"/>
              <path id="Path_133" data-name="Path 133" class="cls-6" d="M1108.921,610a14.219,14.219,0,0,1-5.863,11.957l-.174-.039-1.7-.362c.338-2.535,2.414-5.722,4.2-8.113A18.574,18.574,0,0,1,1108.921,610Z" transform="translate(-524.536 662.332)"/>
              <path id="Path_134" data-name="Path 134" class="cls-6" d="M1101.743,618.534a2.666,2.666,0,0,1-.966.749h0a1.883,1.883,0,0,1-.362.121c-1.077.251-1.449-.526-1.391-1.85.1-2.352,1.579-6.432,2.9-9.489a11.857,11.857,0,0,1,2.753-3.974S1104.606,615.211,1101.743,618.534Z" transform="translate(-523.418 665.388)"/>
              <path id="Path_135" data-name="Path 135" class="cls-6" d="M1099.558,593.7s-4.9,17.385-.681,19.983S1100.639,595.236,1099.558,593.7Z" transform="translate(-522.46 670.761)"/>
              <path id="Path_136" data-name="Path 136" class="cls-23" d="M1082.625,618s-.966,7.688,6.375,8.6l.454-.855S1083.079,620.386,1082.625,618Z" transform="translate(-514.92 658.195)"/>
              <path id="Path_137" data-name="Path 137" class="cls-23" d="M1094.074,621.542l-1.71.362-.169.039s-5.24-3.7-5.2-11.942c0,0,1.342,1.449,2.859,3.443C1091.679,615.819,1093.731,619.006,1094.074,621.542Z" transform="translate(-517.204 662.332)"/>
              <path id="Path_138" data-name="Path 138" class="cls-6" d="M1097.151,625.213l-1.71.362c-1.618-1.42-2.26-5.129-2.492-8.475C1094.756,619.49,1096.808,622.678,1097.151,625.213Z" transform="translate(-520.281 658.661)"/>
              <path id="Path_139" data-name="Path 139" class="cls-23" d="M1097.964,619.272a1.082,1.082,0,0,1-.922.121c-4.385-1.024-3.583-15.313-3.583-15.313a19.842,19.842,0,0,1,2.2,4.279C1097.428,612.478,1099.369,618.239,1097.964,619.272Z" transform="translate(-520.514 665.393)"/>
              <path id="Path_140" data-name="Path 140" class="cls-23" d="M1114.258,618s.966,7.688-6.374,8.6l-.454-.855S1113.8,620.386,1114.258,618Z" transform="translate(-527.768 658.195)"/>
              <path id="Path_141" data-name="Path 141" class="cls-23" d="M1109.65,610c.058,8.258-5.182,11.957-5.182,11.957l-.169-.039-1.709-.362c.338-2.535,2.415-5.722,4.2-8.113C1108.308,611.449,1109.65,610,1109.65,610Z" transform="translate(-525.266 662.332)"/>
              <path id="Path_142" data-name="Path 142" class="cls-6" d="M1106.791,617.1c-.222,3.12-.792,6.553-2.178,8.156a2.466,2.466,0,0,1-.314.319l-1.709-.362C1102.928,622.678,1104.985,619.49,1106.791,617.1Z" transform="translate(-525.266 658.661)"/>
              <path id="Path_143" data-name="Path 143" class="cls-23" d="M1103.153,618.534a2.612,2.612,0,0,1-.966.749h0a1.933,1.933,0,0,1-.357.121c-1.082.251-1.449-.526-1.4-1.85.106-2.352,1.584-6.432,2.9-9.489a18.566,18.566,0,0,1,2.072-3.974S1106.017,615.211,1103.153,618.534Z" transform="translate(-524.148 665.388)"/>
              <path id="Path_144" data-name="Path 144" class="cls-6" d="M1100.1,623.854a1.159,1.159,0,0,1-.7-.222c-2.062-1.285-2.106-6.1-1.613-10.692C1099.564,617.059,1101.506,622.82,1100.1,623.854Z" transform="translate(-522.65 660.812)"/>
              <path id="Path_145" data-name="Path 145" class="cls-6" d="M1103.159,622.79c-.237.517-.555.787-.966.748h0a1.3,1.3,0,0,1-.584-.222,3.121,3.121,0,0,1-1.169-1.507c.106-2.352,1.584-6.432,2.9-9.489C1103.811,616.555,1103.97,621.046,1103.159,622.79Z" transform="translate(-524.154 661.132)"/>
              <path id="Path_146" data-name="Path 146" class="cls-23" d="M1100.116,593.7s-4.211,17.385,0,19.983S1101.2,595.236,1100.116,593.7Z" transform="translate(-523.018 670.761)"/>
              <path id="Path_147" data-name="Path 147" class="cls-28" d="M1045.974,597.61H1028.44v2.9h2.675l.068.343,1.072,5.636h10.194l1.072-5.636.063-.343h2.39Z" transform="translate(-460.793 685.984)"/>
              <path id="Path_148" data-name="Path 148" class="cls-6" d="M1045.974,597.61H1028.44v2.9h2.675l.068.343,1.072,5.636h10.194l1.072-5.636.063-.343h2.39Z" transform="translate(-460.793 685.984)"/>
              <path id="Path_149" data-name="Path 149" class="cls-28" d="M1047.848,601.14l-.295,1.54-1.072,5.636h-10.194l-1.072-5.636-.295-1.54Z" transform="translate(-464.144 684.158)"/>
              <path id="Path_150" data-name="Path 150" class="cls-6" d="M1047.848,601.14l-.295,1.54h-12.339l-.295-1.54Z" transform="translate(-464.144 684.158)"/>
              <rect id="Rectangle_5" data-name="Rectangle 5" class="cls-28" width="17.535" height="2.902" transform="translate(568.328 1283.594)"/>
              <path id="Path_151" data-name="Path 151" class="cls-23" d="M161.235,732.312a8.424,8.424,0,0,0-1.1,2.077c-.068.179-.135.386-.2.584a2.108,2.108,0,0,0-.382-.135,5.312,5.312,0,0,0-1.724-.145c0-.227.029-.483.034-.71.072-2.545-.227-6.09-2.656-4.588-2.328,1.449-.666,3.863.835,5.409.13.135.261.261.386.382-1.371.966-1.632,3.25-1.859,5.621s-2.241,4.964-3.578,6.437c-.135.15-.256.285-.377.411a4.9,4.9,0,0,0-3.887-1c-.053-.208-.116-.425-.179-.652-1.082-3.907-3.327-10.672-6.191-12.155l.377-.483c1.217-1.589,2.588-3.955.565-4.559s-2.207,2.048-2.1,4.037q.029.377.058.71a2.961,2.961,0,0,0-2.115,1.033l-.314-.372c-1.642-1.932-4.65-5.008-5.563-2.685-.85,2.164,1.8,4.974,3.665,6.6l.116.1c-1.251,5.075,4.211,9.214,7.152,11.025l.381.232c-4.056,4.781-6.563,13.744-6.563,13.744l11.358,2.028s7.533-6.5,6.568-12.6h.077c7.529-1.507,9.238-9.533,8.065-14.3l.135-.053a8.523,8.523,0,0,0,3.487-2.637C167.812,732.747,163.408,729.444,161.235,732.312Z" transform="translate(-22.921 600.944)"/>
              <path id="Path_152" data-name="Path 152" class="cls-6" d="M161.235,732.312a8.424,8.424,0,0,0-1.1,2.077c-.068.179-.135.386-.2.584a2.108,2.108,0,0,0-.382-.135,5.312,5.312,0,0,0-1.724-.145c0-.227.029-.483.034-.71.072-2.545-.227-6.09-2.656-4.588-2.328,1.449-.666,3.863.835,5.409.13.135.261.261.386.382-1.371.966-1.632,3.25-1.859,5.621s-2.241,4.964-3.578,6.437c-.135.15-.256.285-.377.411a4.9,4.9,0,0,0-3.887-1c-.053-.208-.116-.425-.179-.652-1.082-3.907-3.327-10.672-6.191-12.155l.377-.483c1.217-1.589,2.588-3.955.565-4.559s-2.207,2.048-2.1,4.037q.029.377.058.71a2.961,2.961,0,0,0-2.115,1.033l-.314-.372c-1.642-1.932-4.65-5.008-5.563-2.685-.85,2.164,1.8,4.974,3.665,6.6l.116.1c-1.251,5.075,4.211,9.214,7.152,11.025l.381.232c-4.056,4.781-6.563,13.744-6.563,13.744l11.358,2.028s7.533-6.5,6.568-12.6h.077c7.529-1.507,9.238-9.533,8.065-14.3l.135-.053a8.523,8.523,0,0,0,3.487-2.637C167.812,732.747,163.408,729.444,161.235,732.312Z" transform="translate(-22.921 600.944)"/>
              <path id="Path_153" data-name="Path 153" class="cls-23" d="M139.369,737.738l-1.328,3.863s-.739-.522-1.671-1.342c-1.864-1.627-4.515-4.438-3.665-6.6.913-2.323,3.921.744,5.563,2.685C138.93,737.115,139.369,737.738,139.369,737.738Z" transform="translate(-23.666 598.822)"/>
              <path id="Path_154" data-name="Path 154" class="cls-23" d="M150.815,733.378a18.4,18.4,0,0,1-1.294,1.526,20.381,20.381,0,0,1-.237-2.048c-.111-1.99.1-4.631,2.1-4.037S152.032,731.789,150.815,733.378Z" transform="translate(-32.311 600.936)"/>
              <path id="Path_155" data-name="Path 155" class="cls-23" d="M183.918,734.322c-.039,1.28-.164,2.3-.164,2.3a16.863,16.863,0,0,1-1.656-1.483c-1.5-1.56-3.163-3.965-.835-5.409C183.667,728.228,183.966,731.777,183.918,734.322Z" transform="translate(-48.26 600.605)"/>
              <path id="Path_156" data-name="Path 156" class="cls-23" d="M197.54,738.326a8.524,8.524,0,0,1-3.487,2.637,10.439,10.439,0,0,1-1.169.425l-1.565-2.2a15.541,15.541,0,0,1,.647-2.135,8.423,8.423,0,0,1,1.1-2.077C195.232,732.11,199.645,735.414,197.54,738.326Z" transform="translate(-54.06 598.277)"/>
              <path id="Path_157" data-name="Path 157" class="cls-6" d="M142.368,740.11c.662.773,1.1,1.372,1.1,1.372l-1.328,3.863s-.739-.522-1.671-1.343a7.582,7.582,0,0,1,1.5-3.414C142.1,740.429,142.237,740.265,142.368,740.11Z" transform="translate(-27.766 595.054)"/>
              <path id="Path_158" data-name="Path 158" class="cls-6" d="M150.841,737.792a18.4,18.4,0,0,1-1.294,1.526,20.383,20.383,0,0,1-.237-2.048A2.67,2.67,0,0,1,150.841,737.792Z" transform="translate(-32.337 596.522)"/>
              <path id="Path_159" data-name="Path 159" class="cls-23" d="M152.715,753.971l-3.3,1.449s-.72-.348-1.758-.995c-3.472-2.134-10.45-7.509-5.795-13.845s8.581,5.027,10.141,10.585C152.469,752.856,152.715,753.971,152.715,753.971Z" transform="translate(-27.682 595.777)"/>
              <path id="Path_160" data-name="Path 160" class="cls-6" d="M184.18,740.441A2.714,2.714,0,0,1,186,739.62c-.039,1.28-.164,2.3-.164,2.3A16.854,16.854,0,0,1,184.18,740.441Z" transform="translate(-50.368 595.307)"/>
              <path id="Path_161" data-name="Path 161" class="cls-6" d="M194.073,744.367a10.427,10.427,0,0,1-1.169.425l-1.565-2.2a15.537,15.537,0,0,1,.647-2.134C192.987,741.049,193.73,742.517,194.073,744.367Z" transform="translate(-54.07 594.873)"/>
              <path id="Path_162" data-name="Path 162" class="cls-23" d="M172.889,759.014c-.179.039-.367.073-.555.1-11.073,1.681-3.651-4.293-3.651-4.293s.483-.483,1.173-1.212c1.338-1.473,3.347-4.052,3.578-6.437.348-3.588.749-6.954,4.984-5.969C182.576,742.179,183.373,756.913,172.889,759.014Z" transform="translate(-41.095 594.578)"/>
              <rect id="Rectangle_6" data-name="Rectangle 6" class="cls-29" width="21.156" height="5.563" transform="translate(110.43 1381.161)"/>
              <rect id="Rectangle_7" data-name="Rectangle 7" class="cls-29" width="27.642" height="19.413" transform="translate(107.069 1363.081)"/>
              <rect id="Rectangle_8" data-name="Rectangle 8" class="cls-6" width="21.156" height="5.563" transform="translate(110.43 1381.161)"/>
              <rect id="Rectangle_9" data-name="Rectangle 9" class="cls-6" width="27.642" height="19.413" transform="translate(107.069 1363.081)"/>
              <rect id="Rectangle_10" data-name="Rectangle 10" class="cls-29" width="21.156" height="5.563" transform="translate(111.821 1381.161)"/>
              <path id="Path_163" data-name="Path 163" class="cls-6" d="M159.866,764.51c.483,1.661.715,2.8.715,2.8l-3.3,1.449s-.72-.348-1.758-.995A8.48,8.48,0,0,1,159.866,764.51Z" transform="translate(-35.548 582.437)"/>
              <path id="Path_164" data-name="Path 164" class="cls-6" d="M172.889,772.484c-.179.039-.367.072-.555.1-11.073,1.68-3.651-4.293-3.651-4.293s.483-.483,1.173-1.212A7.332,7.332,0,0,1,172.889,772.484Z" transform="translate(-41.095 581.108)"/>
              <path id="Path_165" data-name="Path 165" class="cls-23" d="M142.72,782.346s6.2-22.214,14.9-15.361-3.54,17.385-3.54,17.385Z" transform="translate(-28.929 581.836)"/>
              <circle id="Ellipse_10" data-name="Ellipse 10" class="cls-6" cx="0.695" cy="0.695" r="0.695" transform="translate(116.225 1339.143)"/>
              <circle id="Ellipse_11" data-name="Ellipse 11" class="cls-6" cx="0.695" cy="0.695" r="0.695" transform="translate(116.167 1342.388)"/>
              <circle id="Ellipse_12" data-name="Ellipse 12" class="cls-6" cx="0.695" cy="0.695" r="0.695" transform="translate(136.338 1339.781)"/>
              <circle id="Ellipse_13" data-name="Ellipse 13" class="cls-6" cx="0.695" cy="0.695" r="0.695" transform="translate(120.112 1356.417)"/>
              <circle id="Ellipse_14" data-name="Ellipse 14" class="cls-6" cx="0.695" cy="0.695" r="0.695" transform="translate(134.889 1345.17)"/>
              <circle id="Ellipse_15" data-name="Ellipse 15" class="cls-6" cx="0.695" cy="0.695" r="0.695" transform="translate(127.704 1352.36)"/>
              <circle id="Ellipse_16" data-name="Ellipse 16" class="cls-6" cx="0.695" cy="0.695" r="0.695" transform="translate(118.601 1340.534)"/>
              <circle id="Ellipse_17" data-name="Ellipse 17" class="cls-6" cx="0.695" cy="0.695" r="0.695" transform="translate(134.426 1341.867)"/>
              <circle id="Ellipse_18" data-name="Ellipse 18" class="cls-6" cx="0.695" cy="0.695" r="0.695" transform="translate(132.05 1347.256)"/>
              <circle id="Ellipse_19" data-name="Ellipse 19" class="cls-6" cx="0.695" cy="0.695" r="0.695" transform="translate(124.748 1355.895)"/>
              <circle id="Ellipse_20" data-name="Ellipse 20" class="cls-6" cx="0.695" cy="0.695" r="0.695" transform="translate(123.242 1352.476)"/>
              <circle id="Ellipse_21" data-name="Ellipse 21" class="cls-6" cx="0.695" cy="0.695" r="0.695" transform="translate(119.644 1344.764)"/>
              <rect id="Rectangle_11" data-name="Rectangle 11" class="cls-6" width="21.156" height="2.033" transform="translate(111.821 1381.161)"/>
              <rect id="Rectangle_12" data-name="Rectangle 12" class="cls-29" width="27.642" height="19.413" transform="translate(108.46 1363.081)"/>
              <circle id="Ellipse_22" data-name="Ellipse 22" class="cls-6" cx="0.695" cy="0.695" r="0.695" transform="translate(125.675 1359.025)"/>
              <circle id="Ellipse_23" data-name="Ellipse 23" class="cls-6" cx="0.695" cy="0.695" r="0.695" transform="translate(121.503 1359.894)"/>
              <circle id="Ellipse_24" data-name="Ellipse 24" class="cls-1" cx="5.051" cy="5.051" r="5.051" transform="translate(90.094 1015.06)"/>
              <circle id="Ellipse_25" data-name="Ellipse 25" class="cls-1" cx="6.761" cy="6.761" r="6.761" transform="translate(573.505 1172.272)"/>
              <circle id="Ellipse_26" data-name="Ellipse 26" class="cls-1" cx="4.935" cy="4.935" r="4.935" transform="translate(588.364 1159.61)"/>
              <ellipse id="Ellipse_27" data-name="Ellipse 27" class="cls-1" cx="7" cy="6.5" rx="7" ry="6.5" transform="translate(97 995)"/>
              <circle id="Ellipse_28" data-name="Ellipse 28" class="cls-1" cx="6.5" cy="6.5" r="6.5" transform="translate(71 1026)"/>
            </g>
          </g>
        </g>
      </g>
    </g>
  </g>
</svg>
