<svg xmlns="http://www.w3.org/2000/svg" width="57" height="57" viewBox="0 0 57 57">
  <g id="Group_608" data-name="Group 608" transform="translate(-398 -627)">
    <g id="Rectangle_1" data-name="Rectangle 1" transform="translate(398 627)" fill="#fff" stroke="#707070" stroke-width="1" opacity="0">
      <rect width="57" height="57" stroke="none"/>
      <rect x="0.5" y="0.5" width="56" height="56" fill="none"/>
    </g>
    <g id="medical" transform="translate(401.999 631)">
      <path id="Path_812" data-name="Path 812" d="M41.494,33.74a11.112,11.112,0,0,0,6.213,2s-2.605,4.81-9.119,2.405c0,0,2.105,2.706,4.31,3.407,0,0-5.562,3.908-8.919-.8,0,0-2.906,4.409-7.716.6H22.81c-4.81,3.808-7.716-.6-7.716-.6-3.356,4.71-8.919.8-8.919.8,2.2-.7,4.31-3.407,4.31-3.407-6.514,2.4-9.119-2.405-9.119-2.405a11.112,11.112,0,0,0,6.213-2C.463,34.342,0,28.729,0,28.729a23.067,23.067,0,0,0,8.232.294c1.361-.143,2.759-.351,4.156-.595,6.313-1.1,6.714,8.017,10.422,8.017h3.452c3.708,0,4.108-9.119,10.422-8.017,4.567.8,9.143,1.2,12.388.3,0,0-.462,5.612-7.578,5.01Zm0,0" transform="translate(0 -25.621)" fill="#fcb52f"/>
      <path id="Path_813" data-name="Path 813" d="M101.853,36.446,100.6,39.86c-9.912,0-5.772-7.352-11.759-7.832-3.268-.263-3-3-3-3h0C87.2,28.88,88.6,28.672,90,28.429c6.313-1.1,6.714,8.017,10.422,8.017Zm0,0" transform="translate(-77.607 -25.62)" fill="#f99830"/>
      <path id="Path_814" data-name="Path 814" d="M259.023,36.446l1.252,3.415c9.912,0,5.772-7.352,11.759-7.832,3.268-.263,3-3,3-3h0c-1.361-.143-2.759-.351-4.156-.595-6.313-1.1-6.714,8.017-10.422,8.017Zm0,0" transform="translate(-234.197 -25.62)" fill="#f99830"/>
      <path id="Path_815" data-name="Path 815" d="M243.185,42.273V85.589a1.634,1.634,0,0,1-3.267,0V42.273Zm0,0" transform="translate(-216.924 -38.222)" fill="#f99830"/>
      <path id="Path_816" data-name="Path 816" d="M256.741,42.273V85.589a1.019,1.019,0,1,1-1.83,0V42.273Zm0,0" transform="translate(-230.479 -38.222)" fill="#fcb52f"/>
      <path id="Path_817" data-name="Path 817" d="M137.872,156.573c-.477,1.794-3.18,4.392-9.162,5.906-5.064,1.282-6.926,3.432-6.414,5.486a3.469,3.469,0,0,0,.508,1.1s-3.074-1.729-2.385-5c1.022-4.845,13.515-4.657,13.515-8.859,0-5.073-20.923-2.271-20.923-12.606,0-8.041,7.033-8.208,8.694-6.592a1.16,1.16,0,0,1,.3.459c.681,2.045-.341,5.224-4.089,5.678,0,0-2.536,3.6,9.729,5.642,9.159,1.526,11.2,5.073,10.221,8.782Zm0,0" transform="translate(-102.18 -122.246)" fill="#79a879"/>
      <path id="Path_818" data-name="Path 818" d="M143.335,155.209c0,4.2,12.493,4.013,13.515,8.859.689,3.268-2.385,5-2.385,5,1.59-2.347.075-5.073-5.906-6.587s-8.685-4.112-9.161-5.906c-.984-3.709,1.062-7.256,10.221-8.782,12.265-2.045,9.729-5.642,9.729-5.642-3.748-.454-4.77-3.633-4.088-5.678a1.537,1.537,0,0,1,.778-.8c2.229-1.2,8.22-.49,8.22,6.931,0,10.335-20.924,7.534-20.924,12.606Zm0,0" transform="translate(-125.835 -122.245)" fill="#79a879"/>
      <g id="Group_576" data-name="Group 576" transform="translate(10.832 12.958)">
        <path id="Path_819" data-name="Path 819" d="M154.466,306c1.59-2.347.075-5.073-5.906-6.587s-8.685-4.112-9.161-5.906c-.681-2.568.09-5.058,3.669-6.855a34.35,34.35,0,0,0,3.56,1.043c-5.571,1.737-5.366,2.961-5.366,4.511,0,1.96,2,4.211,7.58,5.751S157.9,302.567,154.466,306Zm0,0" transform="translate(-136.667 -272.134)" fill="#5d895d"/>
        <path id="Path_820" data-name="Path 820" d="M261.355,153.007a31.338,31.338,0,0,0-3.552-.787q-.434-.072-.843-.147c11.3-2.066,8.886-5.495,8.886-5.495-3.748-.454-4.77-3.633-4.087-5.678a1.537,1.537,0,0,1,.778-.8c0,1.76,2.473,4.9,5.153,5.418,0,0,2.211,4.7-6.334,7.487Zm0,0" transform="translate(-243.164 -139.632)" fill="#5d895d"/>
        <path id="Path_821" data-name="Path 821" d="M191.192,411.3c.7.259,1.468.5,2.3.722-.324.13-.607.251-.837.366-2.361,1.18-2.329,3.013-1.419,5.211.149.358.32.725.508,1.1,0,0-3.074-1.729-2.385-5a3.984,3.984,0,0,1,1.833-2.4Zm0,0" transform="translate(-181.95 -384.843)" fill="#5d895d"/>
        <path id="Path_822" data-name="Path 822" d="M129.362,160.606c-.8-.346-1.676-.657-2.554-.956,3.5-1.188,7.127-2.177,7.127-4.44,0-3.208-8.37-3.267-14.522-5.492h0c-3.575-1.293-6.4-3.317-6.4-7.114,0-8.041,7.033-8.208,8.694-6.592-3.05.241-7.007,1.459-7.007,6.159,0,8.592,21.793,6.37,21.255,13.313-.233,3.006-3.213,3.773-6.59,5.122Zm0,0" transform="translate(-113.011 -135.203)" fill="#5d895d"/>
      </g>
      <path id="Path_823" data-name="Path 823" d="M222.79,4.052A4.047,4.047,0,1,1,220.013.2a4.053,4.053,0,0,1,2.777,3.847Zm0,0" transform="translate(-194.111)" fill="#f99830"/>
      <path id="Path_824" data-name="Path 824" d="M246.832,5.98a4.053,4.053,0,0,1-2.777,3.847,4.053,4.053,0,0,1,0-7.694,4.053,4.053,0,0,1,2.777,3.847Zm0,0" transform="translate(-218.153 -1.928)" fill="#fcb52f"/>
      <path id="Path_825" data-name="Path 825" d="M155.819,159.636a.752.752,0,1,1,.737-.606A.76.76,0,0,1,155.819,159.636Zm0,0" transform="translate(-140.205 -142.978)" fill="#3b3d4d"/>
      <path id="Path_826" data-name="Path 826" d="M343.929,159.638a.752.752,0,1,1,.733-.588A.76.76,0,0,1,343.929,159.638Zm0,0" transform="translate(-310.287 -142.979)" fill="#3b3d4d"/>
      <path id="Path_827" data-name="Path 827" d="M267.374,30.717c0-.677-.395-1.225-.882-1.225s-.882.548-.882,1.225.395,1.225.882,1.225S267.374,31.394,267.374,30.717Zm0,0" transform="translate(-240.153 -26.666)" fill="#fff"/>
    </g>
  </g>
</svg>
