<svg xmlns="http://www.w3.org/2000/svg" width="64.986" height="64.968" viewBox="0 0 64.986 64.968">
  <defs>
    <style>
      .cls-1, .cls-4 {
        fill: #d3e6f0;
      }

      .cls-1, .cls-3 {
        opacity: 0;
      }

      .cls-2, .cls-3 {
        fill: #00abf6;
      }

      .cls-5 {
        fill: #fff;
      }
    </style>
  </defs>
  <g id="Group_88" data-name="Group 88" transform="translate(541.761 -1135.989)">
    <g id="clinic" transform="translate(-541.761 1143.783)">
      <path id="Path_264" data-name="Path 264" class="cls-1" d="M184.752,12.775A2.775,2.775,0,0,0,181.978,10H163a2.775,2.775,0,0,0-2.775,2.775V32.709h24.526Zm-5.162,11.087H174.7v4.887h-4.429V23.862h-4.887V19.434h4.887V14.547H174.7v4.887h4.887Zm0,0" transform="translate(-140.384 -10)"/>
      <path id="Path_266" data-name="Path 266" class="cls-2" d="M148.1,185.893h5.692v-2.334a1.629,1.629,0,0,0-1.629-1.629H119.629A1.629,1.629,0,0,0,118,183.559v2.334h30.1Zm0,0" transform="translate(-103.735 -159.221)"/>
      <path id="Path_267" data-name="Path 267" class="cls-3" d="M112.325,211.934H67.967a2.616,2.616,0,0,0-2.616,2.616v26.565H80.6v-9.193a2.1,2.1,0,0,1,2.1-2.1H98.37a2.1,2.1,0,0,1,2.1,2.1v9.193h14.472V214.55a2.616,2.616,0,0,0-2.616-2.616ZM79.7,223.623a.859.859,0,0,1-.859.859H72.371a.859.859,0,0,1-.859-.859v-4.887a.859.859,0,0,1,.859-.859h6.472a.859.859,0,0,1,.859.859Zm14.926,0a.859.859,0,0,1-.859.859H87.3a.859.859,0,0,1-.859-.859v-4.887a.859.859,0,0,1,.859-.859h6.472a.859.859,0,0,1,.859.859Zm14.926,0a.859.859,0,0,1-.859.859h-6.472a.859.859,0,0,1-.859-.859v-4.887a.859.859,0,0,1,.859-.859h6.472a.859.859,0,0,1,.859.859Zm0,0" transform="translate(-58.04 -185.262)"/>
      <g id="Group_86" data-name="Group 86" transform="translate(13.473 32.616)">
        <path id="Path_268" data-name="Path 268" class="cls-4" d="M198.55,347.371H182.876a2.1,2.1,0,0,0-2.1,2.1v9.193h19.872V349.47a2.1,2.1,0,0,0-2.1-2.1Zm0,0" transform="translate(-171.693 -335.425)"/>
        <path id="Path_269" data-name="Path 269" class="cls-4" d="M119.331,256.93h-6.472a.859.859,0,0,0-.859.859v4.887a.859.859,0,0,0,.859.859h6.472a.859.859,0,0,0,.859-.859v-4.887A.859.859,0,0,0,119.331,256.93Zm0,0" transform="translate(-112 -256.93)"/>
        <path id="Path_270" data-name="Path 270" class="cls-4" d="M232.331,256.93h-6.472a.859.859,0,0,0-.859.859v4.887a.859.859,0,0,0,.859.859h6.472a.859.859,0,0,0,.859-.859v-4.887A.859.859,0,0,0,232.331,256.93Zm0,0" transform="translate(-210.074 -256.93)"/>
        <path id="Path_271" data-name="Path 271" class="cls-4" d="M345.331,256.93h-6.472a.859.859,0,0,0-.859.859v4.887a.859.859,0,0,0,.859.859h6.472a.859.859,0,0,0,.859-.859v-4.887A.859.859,0,0,0,345.331,256.93Zm0,0" transform="translate(-308.149 -256.93)"/>
      </g>
      <path id="Path_272" data-name="Path 272" d="M70.225,57.08H63.46V31.836A3.941,3.941,0,0,0,59.523,27.9h-2.9V26.886a2.953,2.953,0,0,0-2.95-2.95H50.928V5.322H23.76V23.936H21.133a2.953,2.953,0,0,0-2.95,2.95V27.9H15.166a3.941,3.941,0,0,0-3.937,3.937V57.08H5.239v2.642H70.225s0-.721,0-1.381,0-1.26,0-1.26ZM26.4,5.322H23.76V3.141H50.928V5.322H48.287V23.936H26.4ZM29.117,57.08V49.208a.779.779,0,0,1,.778-.778h6.516v8.65Zm9.936,0V48.43h6.516a.779.779,0,0,1,.778.778V57.08Zm9.936,0V49.208a3.423,3.423,0,0,0-3.42-3.42H29.895a3.423,3.423,0,0,0-3.42,3.42V57.08h-12.6V31.836a1.3,1.3,0,0,1,1.3-1.3H51.072s-1.042-.66-1.042-1.321S51.521,27.9,51.521,27.9h-30.7V26.886a.309.309,0,0,1,.308-.308H53.67a.308.308,0,0,1,.308.308V27.9H51.072a1.321,1.321,0,0,0,0,2.642h8.451a1.3,1.3,0,0,1,1.3,1.3V57.08Zm0,0" transform="translate(-5.239 -2.547)"/>
    </g>
    <g id="Group_87" data-name="Group 87" transform="translate(-516.995 1135.989)">
      <circle id="Ellipse_34" data-name="Ellipse 34" class="cls-2" cx="7.669" cy="7.669" r="7.669" transform="translate(0)"/>
      <path id="Path_277" data-name="Path 277" class="cls-5" d="M194.889,41.582h4.333V38.844h2.889V34.738h-2.889V32h-4.333v2.738H192v4.107h2.889Zm-1.444-4.107V36.107h2.889V33.369h1.444v2.738h2.889v1.369h-2.889v2.738h-1.444V37.475Z" transform="translate(-189.481 -29.111)"/>
    </g>
    <path id="Path_278" data-name="Path 278" d="M109.067,246.93H102v6.033h7.067V246.93Zm-1.724,4.309h-3.62v-2.585h3.62Zm0,0" transform="translate(-619.759 906.464)"/>
    <path id="Path_281" data-name="Path 281" d="M112.678,246.93H102v9.115h10.678V246.93Zm-2.6,6.511H104.6v-3.907h5.469Zm0,0" transform="translate(-632.114 927.643)"/>
    <path id="Path_279" data-name="Path 279" d="M109.067,246.93H102v6.033h7.067V246.93Zm-1.724,4.309h-3.62v-2.585h3.62Zm0,0" transform="translate(-611.186 906.464)"/>
    <path id="Path_280" data-name="Path 280" d="M112.678,246.93H102v9.115h10.678V246.93Zm-2.6,6.511H104.6v-3.907h5.469Zm0,0" transform="translate(-616.481 927.643)"/>
    <path id="Path_282" data-name="Path 282" d="M112.678,246.93H102v9.115h10.678V246.93Zm-2.6,6.511H104.6v-3.907h5.469Zm0,0" transform="translate(-601.857 927.643)"/>
  </g>
</svg>
