<svg id="event" xmlns="http://www.w3.org/2000/svg" width="41.635" height="41.635" viewBox="0 0 41.635 41.635">
  <defs>
    <style>
      .cls-1 {
        fill: #ceeffd;
      }

      .cls-2 {
        fill: #00abf6;
      }
    </style>
  </defs>
  <g id="Group_144" data-name="Group 144" transform="translate(2.686 3.358)">
    <path id="Path_382" data-name="Path 382" class="cls-1" d="M24.475,39.1H33.2V26.343A1.344,1.344,0,0,0,31.862,25H6.343A1.344,1.344,0,0,0,5,26.343V41.117A1.344,1.344,0,0,0,6.343,42.46H24.475Z" transform="translate(-5 -12.241)"/>
    <path id="Path_383" data-name="Path 383" class="cls-2" d="M55.015,55.029a2.015,2.015,0,1,1,2.015-2.015A2.017,2.017,0,0,1,55.015,55.029Z" transform="translate(-20.766 -20.781)"/>
    <path id="Path_384" data-name="Path 384" class="cls-2" d="M39.015,55.029a2.015,2.015,0,1,1,2.015-2.015A2.017,2.017,0,0,1,39.015,55.029Z" transform="translate(-15.511 -20.781)"/>
    <path id="Path_385" data-name="Path 385" class="cls-2" d="M47.015,55.029a2.015,2.015,0,1,1,2.015-2.015A2.017,2.017,0,0,1,47.015,55.029Z" transform="translate(-18.138 -20.781)"/>
    <path id="Path_386" data-name="Path 386" class="cls-1" d="M41,6H53.088v6.044H41Z" transform="translate(-16.825 -6)"/>
  </g>
  <path id="Path_387" data-name="Path 387" d="M17,29h1.343v1.343H17Z" transform="translate(-6.255 -10.197)"/>
  <path id="Path_388" data-name="Path 388" d="M25,37h1.343v1.343H25Z" transform="translate(-8.883 -12.825)"/>
  <path id="Path_389" data-name="Path 389" d="M9,45h1.343v1.343H9Z" transform="translate(-3.628 -15.452)"/>
  <path id="Path_390" data-name="Path 390" d="M41,5H53.088V6.343H41Z" transform="translate(-14.138 -2.314)"/>
  <path id="Path_391" data-name="Path 391" d="M45,9h9.4v1.343H45Z" transform="translate(-15.452 -3.628)"/>
  <path id="Path_392" data-name="Path 392" d="M41,9h1.343v1.343H41Z" transform="translate(-14.138 -3.628)"/>
  <path id="Path_393" data-name="Path 393" d="M57,13h1.343v1.343H57Z" transform="translate(-19.394 -4.942)"/>
  <path id="Path_394" data-name="Path 394" d="M41,13h9.4v1.343H41Z" transform="translate(-14.138 -4.942)"/>
  <path id="Path_395" data-name="Path 395" d="M39.278,13.088A3.362,3.362,0,0,0,42.635,9.73V4.358A3.362,3.362,0,0,0,39.278,1H28.533a3.362,3.362,0,0,0-3.358,3.358v4.7H19.8V7.715A1.344,1.344,0,0,0,18.46,6.372H17.117a1.344,1.344,0,0,0-1.343,1.343V9.058H10.4V7.715A1.344,1.344,0,0,0,9.058,6.372H7.715A1.344,1.344,0,0,0,6.372,7.715V9.058H4.358A3.362,3.362,0,0,0,1,12.416V33.905a3.362,3.362,0,0,0,3.358,3.358H22.529a6.05,6.05,0,0,0,6,5.372h8.058a6.044,6.044,0,0,0,0-12.088H34.577V13.088ZM26.518,4.358a2.017,2.017,0,0,1,2.015-2.015H39.278a2.017,2.017,0,0,1,2.015,2.015V9.73a2.017,2.017,0,0,1-2.015,2.015H33.055l-3.851,2.2v-2.2h-.672A2.017,2.017,0,0,1,26.518,9.73Zm-9.4,3.358H18.46v4.029H17.117Zm-9.4,0H9.058v4.029H7.715ZM41.292,36.592a4.706,4.706,0,0,1-4.7,4.7H28.533a4.706,4.706,0,0,1-4.7-4.7v-4.7H36.592A4.706,4.706,0,0,1,41.292,36.592ZM26.518,30.548V29.2h5.372V27.862H26.518V23.832h5.372V22.489H26.518V17.117H25.175v5.372H21.146V17.117H19.8v5.372H15.774V17.117H14.431v5.372H10.4V17.117H9.058v5.372H3.686v1.343H9.058v4.029H3.686V29.2H9.058v5.372H10.4V29.2h4.029v5.372h1.343V29.2H19.8v5.372h1.343V29.2h4.029v1.343H22.489V35.92H4.358a2.017,2.017,0,0,1-2.015-2.015V15.774H26.518V14.431H2.343V12.416A2.017,2.017,0,0,1,4.358,10.4H6.372v1.343a1.344,1.344,0,0,0,1.343,1.343H9.058A1.344,1.344,0,0,0,10.4,11.745V10.4h5.372v1.343a1.344,1.344,0,0,0,1.343,1.343H18.46A1.344,1.344,0,0,0,19.8,11.745V10.4h5.446a3.363,3.363,0,0,0,2.612,2.618v3.24l5.372-3.07V30.548ZM15.774,23.832H19.8v4.029H15.774Zm-1.343,4.029H10.4V23.832h4.029Zm6.715-4.029h4.029v4.029H21.146Z" transform="translate(-1 -1)"/>
  <path id="Path_396" data-name="Path 396" d="M41,29h1.343v1.343H41Z" transform="translate(-14.138 -10.197)"/>
</svg>
