<svg xmlns="http://www.w3.org/2000/svg" width="50" height="50" viewBox="0 0 50 50">
  <g id="Group_601" data-name="Group 601" transform="translate(15823.5 702.5)">
    <g id="Rectangle_170" data-name="Rectangle 170" transform="translate(-15823.5 -702.5)" fill="#fff" stroke="#707070" stroke-width="1" opacity="0">
      <rect width="50" height="50" stroke="none"/>
      <rect x="0.5" y="0.5" width="49" height="49" fill="none"/>
    </g>
    <rect id="Rectangle_171" data-name="Rectangle 171" width="8.124" height="24.976" transform="translate(-15816.5 -684.147)" fill="#1976d2"/>
    <path id="Path_901" data-name="Path 901" d="M178.9,160.293c-.086-.027-.168-.057-.259-.082-.109-.025-.218-.045-.329-.064a7.282,7.282,0,0,0-1.458-.148h0c-4.736,0-7.74,3.444-8.73,4.775V160H160v24.976h8.124V171.353s6.139-8.551,8.73-2.27v15.894h8.122V168.122A8.1,8.1,0,0,0,178.9,160.293Z" transform="translate(-15965.147 -844.147)" fill="#1976d2"/>
    <circle id="Ellipse_67" data-name="Ellipse 67" cx="4" cy="4" r="4" transform="translate(-15816.5 -695.5)" fill="#1976d2"/>
  </g>
</svg>
