<svg id="event" xmlns="http://www.w3.org/2000/svg" width="66" height="66" viewBox="0 0 66 66">
  <defs>
    <style>
      .cls-1 {
        fill: #ceeffd;
      }

      .cls-2 {
        fill: #00abf6;
      }
    </style>
  </defs>
  <g id="Group_144" data-name="Group 144" transform="translate(4.258 5.323)">
    <path id="Path_382" data-name="Path 382" class="cls-1" d="M35.871,47.355H49.71V27.129A2.131,2.131,0,0,0,47.581,25H7.129A2.131,2.131,0,0,0,5,27.129V50.548a2.131,2.131,0,0,0,2.129,2.129H35.871Z" transform="translate(-5 -4.774)"/>
    <path id="Path_383" data-name="Path 383" class="cls-2" d="M56.194,57.387a3.194,3.194,0,1,1,3.194-3.194A3.2,3.2,0,0,1,56.194,57.387Z" transform="translate(-1.903 -3.097)"/>
    <path id="Path_384" data-name="Path 384" class="cls-2" d="M40.194,57.387a3.194,3.194,0,1,1,3.194-3.194A3.2,3.2,0,0,1,40.194,57.387Z" transform="translate(-2.935 -3.097)"/>
    <path id="Path_385" data-name="Path 385" class="cls-2" d="M48.194,57.387a3.194,3.194,0,1,1,3.194-3.194A3.2,3.2,0,0,1,48.194,57.387Z" transform="translate(-2.419 -3.097)"/>
    <path id="Path_386" data-name="Path 386" class="cls-1" d="M41,6H60.161v9.581H41Z" transform="translate(-2.677 -6)"/>
  </g>
  <path id="Path_387" data-name="Path 387" d="M17,29h2.129v2.129H17Z" transform="translate(0.032 0.806)"/>
  <path id="Path_388" data-name="Path 388" d="M25,37h2.129v2.129H25Z" transform="translate(0.548 1.323)"/>
  <path id="Path_389" data-name="Path 389" d="M9,45h2.129v2.129H9Z" transform="translate(-0.484 1.839)"/>
  <path id="Path_390" data-name="Path 390" d="M41,5H60.161V7.129H41Z" transform="translate(1.581 -0.742)"/>
  <path id="Path_391" data-name="Path 391" d="M45,9H59.9v2.129H45Z" transform="translate(1.839 -0.484)"/>
  <path id="Path_392" data-name="Path 392" d="M41,9h2.129v2.129H41Z" transform="translate(1.581 -0.484)"/>
  <path id="Path_393" data-name="Path 393" d="M57,13h2.129v2.129H57Z" transform="translate(2.613 -0.226)"/>
  <path id="Path_394" data-name="Path 394" d="M41,13H55.9v2.129H41Z" transform="translate(1.581 -0.226)"/>
  <path id="Path_395" data-name="Path 395" d="M61.677,20.161A5.329,5.329,0,0,0,67,14.839V6.323A5.329,5.329,0,0,0,61.677,1H44.645a5.329,5.329,0,0,0-5.323,5.323v7.452H30.806V11.645a2.131,2.131,0,0,0-2.129-2.129H26.548a2.131,2.131,0,0,0-2.129,2.129v2.129H15.9V11.645a2.131,2.131,0,0,0-2.129-2.129H11.645a2.131,2.131,0,0,0-2.129,2.129v2.129H6.323A5.329,5.329,0,0,0,1,19.1V53.161a5.329,5.329,0,0,0,5.323,5.323h28.8A9.591,9.591,0,0,0,44.645,67H57.419a9.581,9.581,0,0,0,0-19.161H54.226V20.161ZM41.452,6.323a3.2,3.2,0,0,1,3.194-3.194H61.677a3.2,3.2,0,0,1,3.194,3.194v8.516a3.2,3.2,0,0,1-3.194,3.194H51.814l-6.1,3.488V18.032H44.645a3.2,3.2,0,0,1-3.194-3.194Zm-14.9,5.323h2.129v6.387h-2.13Zm-14.9,0h2.129v6.387h-2.13ZM64.871,57.419a7.46,7.46,0,0,1-7.452,7.452H44.645a7.46,7.46,0,0,1-7.452-7.452V49.968H57.419A7.46,7.46,0,0,1,64.871,57.419ZM41.452,47.839V45.71h8.516V43.581H41.452V37.194h8.516V35.065H41.452V26.548H39.323v8.516H32.935V26.548H30.806v8.516H24.419V26.548H22.29v8.516H15.9V26.548H13.774v8.516H5.258v2.129h8.516v6.387H5.258V45.71h8.516v8.516H15.9V45.71H22.29v8.516h2.129V45.71h6.387v8.516h2.129V45.71h6.387v2.129H35.065v8.516H6.323a3.2,3.2,0,0,1-3.194-3.194V24.419H41.452V22.29H3.129V19.1A3.2,3.2,0,0,1,6.323,15.9H9.516v2.129a2.131,2.131,0,0,0,2.129,2.129h2.129A2.131,2.131,0,0,0,15.9,18.032V15.9h8.516v2.129a2.131,2.131,0,0,0,2.129,2.129h2.129a2.131,2.131,0,0,0,2.129-2.129V15.9H39.44a5.331,5.331,0,0,0,4.141,4.151v5.135L52.1,20.323V47.839ZM24.419,37.194h6.387v6.387H24.419ZM22.29,43.581H15.9V37.194H22.29Zm10.645-6.387h6.387v6.387H32.935Z" transform="translate(-1 -1)"/>
  <path id="Path_396" data-name="Path 396" d="M41,29h2.129v2.129H41Z" transform="translate(1.581 0.806)"/>
</svg>
