<svg xmlns="http://www.w3.org/2000/svg" width="48" height="48" viewBox="0 0 48 48">
  <g id="Group_630" data-name="Group 630" transform="translate(-127 -1546)">
    <g id="Rectangle_126" data-name="Rectangle 126" transform="translate(127 1546)" fill="#fff" stroke="#707070" stroke-width="1" opacity="0">
      <rect width="48" height="48" stroke="none"/>
      <rect x="0.5" y="0.5" width="47" height="47" fill="none"/>
    </g>
    <g id="settings_4_" data-name="settings (4)" transform="translate(131 1550)">
      <path id="Path_693" data-name="Path 693" d="M37.324,15.624H34.963a15.331,15.331,0,0,0-1.328-3.194l1.675-1.675a2.6,2.6,0,0,0,0-3.68L32.854,4.618a2.6,2.6,0,0,0-3.68,0L27.5,6.293A15.324,15.324,0,0,0,24.3,4.965V2.6A2.612,2.612,0,0,0,21.7,0H18.228a2.612,2.612,0,0,0-2.6,2.6V4.965A15.324,15.324,0,0,0,12.43,6.293L10.755,4.618a2.6,2.6,0,0,0-3.68,0L4.618,7.074a2.6,2.6,0,0,0,0,3.68L6.293,12.43a15.335,15.335,0,0,0-1.328,3.194H2.6a2.612,2.612,0,0,0-2.6,2.6V21.7a2.612,2.612,0,0,0,2.6,2.6H4.965A15.331,15.331,0,0,0,6.293,27.5L4.618,29.174a2.6,2.6,0,0,0,0,3.68L7.074,35.31a2.6,2.6,0,0,0,3.68,0l1.675-1.675a15.324,15.324,0,0,0,3.194,1.328v2.361a2.612,2.612,0,0,0,2.6,2.6H21.7a2.612,2.612,0,0,0,2.6-2.6V34.963A15.324,15.324,0,0,0,27.5,33.635l1.675,1.675a2.6,2.6,0,0,0,3.68,0l2.456-2.456a2.6,2.6,0,0,0,0-3.68L33.635,27.5A15.335,15.335,0,0,0,34.963,24.3h2.361a2.612,2.612,0,0,0,2.6-2.6V18.228A2.612,2.612,0,0,0,37.324,15.624ZM19.964,26.04a6.076,6.076,0,1,1,6.076-6.076A6.083,6.083,0,0,1,19.964,26.04Z" fill="#ffc222"/>
      <path id="Path_694" data-name="Path 694" d="M275.964,18.228V21.7a2.612,2.612,0,0,1-2.6,2.6H271a15.332,15.332,0,0,1-1.328,3.194l1.675,1.675a2.6,2.6,0,0,1,0,3.68L268.89,35.31a2.6,2.6,0,0,1-3.68,0l-1.675-1.675a15.324,15.324,0,0,1-3.194,1.328v2.361a2.612,2.612,0,0,1-2.6,2.6H256V26.04a6.076,6.076,0,0,0,0-12.152V0h1.736a2.612,2.612,0,0,1,2.6,2.6V4.965a15.325,15.325,0,0,1,3.194,1.328l1.675-1.675a2.6,2.6,0,0,1,3.68,0l2.456,2.456a2.6,2.6,0,0,1,0,3.68l-1.675,1.675A15.337,15.337,0,0,1,271,15.624h2.361A2.612,2.612,0,0,1,275.964,18.228Z" transform="translate(-236.036)" fill="#f99c00"/>
    </g>
  </g>
</svg>
