<svg xmlns="http://www.w3.org/2000/svg" width="93" height="93" viewBox="0 0 93 93">
  <g id="omr" transform="translate(2892 -5635)">
    <g id="Rectangle_183" data-name="Rectangle 183" transform="translate(-2892 5635)" fill="#fff" stroke="#707070" stroke-width="1" opacity="0">
      <rect width="93" height="93" stroke="none"/>
      <rect x="0.5" y="0.5" width="92" height="92" fill="none"/>
    </g>
    <g id="Group_658" data-name="Group 658" transform="translate(-17 -281)">
      <g id="print" transform="translate(-2866 5931)">
        <rect id="Rectangle_191" data-name="Rectangle 191" width="75.318" height="39.264" transform="translate(0 24.376)" fill="#333"/>
        <rect id="Rectangle_193" data-name="Rectangle 193" width="46.27" height="31.018" transform="translate(14.523 11.677)" fill="gray"/>
        <rect id="Rectangle_194" data-name="Rectangle 194" width="23.136" height="31.018" transform="translate(37.659 11.677)" fill="#666"/>
        <rect id="Rectangle_195" data-name="Rectangle 195" width="38.682" height="38.463" transform="translate(18.319 0)" fill="#fff"/>
        <circle id="Ellipse_70" data-name="Ellipse 70" cx="2.7" cy="2.7" r="2.7" transform="translate(4.853 53.935)" fill="#ffdc00"/>
        <circle id="Ellipse_71" data-name="Ellipse 71" cx="2.7" cy="2.7" r="2.7" transform="translate(13.83 53.935)" fill="#35ccff"/>
        <circle id="Ellipse_72" data-name="Ellipse 72" cx="1.829" cy="1.829" r="1.829" transform="translate(23.199 4.926)" fill="none" stroke="#707070" stroke-width="1"/>
        <circle id="Ellipse_74" data-name="Ellipse 74" cx="1.829" cy="1.829" r="1.829" transform="translate(23.199 10.837)" fill="none" stroke="#707070" stroke-width="1"/>
        <circle id="Ellipse_75" data-name="Ellipse 75" cx="1.829" cy="1.829" r="1.829" transform="translate(23.199 16.749)" fill="none" stroke="#707070" stroke-width="1"/>
        <circle id="Ellipse_73" data-name="Ellipse 73" cx="1.829" cy="1.829" r="1.829" transform="translate(29.111 4.926)" fill="none" stroke="#707070" stroke-width="1"/>
        <circle id="Ellipse_73-2" data-name="Ellipse 73" cx="1.829" cy="1.829" r="1.829" transform="translate(36.336 4.926)" fill="none" stroke="#707070" stroke-width="1"/>
        <circle id="Ellipse_73-3" data-name="Ellipse 73" cx="1.829" cy="1.829" r="1.829" transform="translate(43.561 4.926)" fill="none" stroke="#707070" stroke-width="1"/>
        <circle id="Ellipse_73-4" data-name="Ellipse 73" cx="1.829" cy="1.829" r="1.829" transform="translate(50.787 4.926)" fill="none" stroke="#707070" stroke-width="1"/>
        <circle id="Ellipse_73-5" data-name="Ellipse 73" cx="1.829" cy="1.829" r="1.829" transform="translate(29.111 10.837)" fill="none" stroke="#707070" stroke-width="1"/>
        <circle id="Ellipse_73-6" data-name="Ellipse 73" cx="1.829" cy="1.829" r="1.829" transform="translate(36.336 10.837)" fill="none" stroke="#707070" stroke-width="1"/>
        <circle id="Ellipse_73-7" data-name="Ellipse 73" cx="1.829" cy="1.829" r="1.829" transform="translate(43.561 10.837)" fill="none" stroke="#707070" stroke-width="1"/>
        <circle id="Ellipse_73-8" data-name="Ellipse 73" cx="1.829" cy="1.829" r="1.829" transform="translate(50.787 10.837)" fill="none" stroke="#707070" stroke-width="1"/>
        <circle id="Ellipse_73-9" data-name="Ellipse 73" cx="1.829" cy="1.829" r="1.829" transform="translate(29.111 16.749)" fill="none" stroke="#707070" stroke-width="1"/>
        <circle id="Ellipse_73-10" data-name="Ellipse 73" cx="1.829" cy="1.829" r="1.829" transform="translate(36.336 16.749)" fill="none" stroke="#707070" stroke-width="1"/>
        <circle id="Ellipse_73-11" data-name="Ellipse 73" cx="1.829" cy="1.829" r="1.829" transform="translate(43.561 16.749)" fill="none" stroke="#707070" stroke-width="1"/>
        <circle id="Ellipse_73-12" data-name="Ellipse 73" cx="1.829" cy="1.829" r="1.829" transform="translate(50.787 16.749)" fill="none" stroke="#707070" stroke-width="1"/>
      </g>
    </g>
  </g>
</svg>
