<svg id="crm" xmlns="http://www.w3.org/2000/svg" width="66" height="66" viewBox="0 0 66 66">
  <defs>
    <style>
      .cls-1 {
        fill: #70d0fa;
      }

      .cls-2 {
        fill: #00abf6;
      }
    </style>
  </defs>
  <g id="Group_19" data-name="Group 19" transform="translate(5.323 5.376)">
    <path id="Path_171" data-name="Path 171" class="cls-1" d="M35.368,7.594l-2.661,2.661L30.045,7.594a5.269,5.269,0,1,0-7.452,7.452L32.706,25.158,42.819,15.045a5.269,5.269,0,0,0-7.452-7.452Z" transform="translate(-5.029 -6.05)"/>
    <path id="Path_172" data-name="Path 172" class="cls-2" d="M50,59h8.516v3.194H50Z" transform="translate(-3.161 -2.634)"/>
    <path id="Path_173" data-name="Path 173" class="cls-2" d="M28,59h8.516v3.194H28Z" transform="translate(-4.581 -2.634)"/>
    <path id="Path_174" data-name="Path 174" class="cls-2" d="M6,59h8.516v3.194H6Z" transform="translate(-6 -2.634)"/>
    <path id="Path_175" data-name="Path 175" class="cls-1" d="M38,38H48.645v2.129H38Z" transform="translate(-3.935 -3.989)"/>
    <path id="Path_176" data-name="Path 176" class="cls-1" d="M16,38H26.645v2.129H16Z" transform="translate(-5.355 -3.989)"/>
  </g>
  <path id="Path_177" data-name="Path 177" d="M61.279,53.98a6.373,6.373,0,0,0-2.8-11.368v-1.16a5.329,5.329,0,0,0-5.323-5.323h-18.1V32.25a3.3,3.3,0,0,0,5.311-2.52,3.314,3.314,0,0,0,3.194-3.194,3.314,3.314,0,0,0,3.194-3.194,3.316,3.316,0,0,0,2.232-5.66l-.221-.221A10.091,10.091,0,0,0,34,3.772,10.087,10.087,0,0,0,19.762,18.057a3.3,3.3,0,0,0,2.54,5.286A3.314,3.314,0,0,0,25.5,26.537a3.314,3.314,0,0,0,3.194,3.194,3.27,3.27,0,0,0,4.246,3.056v3.343h-18.1a5.329,5.329,0,0,0-5.323,5.323v1.16a6.373,6.373,0,0,0-2.8,11.368A9.591,9.591,0,0,0,1,62.742V67H20.161V62.742a9.591,9.591,0,0,0-5.721-8.762,6.373,6.373,0,0,0-2.8-11.368v-1.16a3.2,3.2,0,0,1,3.194-3.194h18.1v4.354a6.373,6.373,0,0,0-2.8,11.368,9.591,9.591,0,0,0-5.721,8.762V67H43.581V62.742A9.591,9.591,0,0,0,37.86,53.98a6.373,6.373,0,0,0-2.8-11.368V38.258h18.1a3.2,3.2,0,0,1,3.194,3.194v1.16a6.373,6.373,0,0,0-2.8,11.368,9.591,9.591,0,0,0-5.721,8.762V67H67V62.742a9.591,9.591,0,0,0-5.721-8.762ZM40.935,3.129A7.959,7.959,0,0,1,47.253,15.94l-4.895-4.895a8.6,8.6,0,0,0,.911-.777L41.765,8.764a6.167,6.167,0,0,1-4.389,1.817H35.688L33.871,12.4a1.06,1.06,0,0,1-.754.312h-4a.441.441,0,0,1-.312-.753L35.3,5.462a7.919,7.919,0,0,1,5.634-2.333Zm-13.871,0a7.907,7.907,0,0,1,5.419,2.139L27.3,10.452a2.571,2.571,0,0,0,1.818,4.387h4a3.174,3.174,0,0,0,2.259-.936L36.57,12.71h.806a8.322,8.322,0,0,0,3.054-.581l7.06,7.06A1.194,1.194,0,0,1,45.8,20.877l-2.532-2.532-1.505,1.505L44.3,22.382a1.194,1.194,0,0,1-1.688,1.688l-2.532-2.532L38.57,23.043,41.1,25.575a1.194,1.194,0,0,1-1.688,1.688l-2.532-2.532-1.505,1.505,2.532,2.532a1.194,1.194,0,0,1-1.688,1.688l-.356-.356A3.312,3.312,0,0,0,32.924,25.5,3.314,3.314,0,0,0,29.73,22.3a3.314,3.314,0,0,0-3.194-3.194A3.32,3.32,0,0,0,23.226,15.9a3.284,3.284,0,0,0-1.957.65,7.96,7.96,0,0,1,5.8-13.425Zm-5.839,16.9a1.189,1.189,0,0,1,.349-.844l.807-.807A1.194,1.194,0,0,1,24.07,20.07l-.807.807a1.194,1.194,0,0,1-2.037-.844Zm3.194,3.194a1.189,1.189,0,0,1,.349-.844l.807-.807a1.194,1.194,0,0,1,1.688,1.688l-.807.807a1.194,1.194,0,0,1-2.037-.844Zm3.194,3.194a1.189,1.189,0,0,1,.349-.844l.807-.807a1.194,1.194,0,0,1,1.688,1.688l-.807.807a1.194,1.194,0,0,1-2.037-.844ZM32,30.806a1.194,1.194,0,0,1-.844-2.037l.807-.807a1.194,1.194,0,0,1,1.688,1.688l-.807.807A1.189,1.189,0,0,1,32,30.806ZM18.032,62.742v2.129H15.9V60.613H13.774v4.258H7.387V60.613H5.258v4.258H3.129V62.742a7.452,7.452,0,1,1,14.9,0ZM14.839,48.9a4.258,4.258,0,1,1-4.258-4.258A4.262,4.262,0,0,1,14.839,48.9ZM41.452,62.742v2.129H39.323V60.613H37.194v4.258H30.806V60.613H28.677v4.258H26.548V62.742a7.452,7.452,0,1,1,14.9,0ZM38.258,48.9A4.258,4.258,0,1,1,34,44.645,4.262,4.262,0,0,1,38.258,48.9Zm14.9,0a4.258,4.258,0,1,1,4.258,4.258A4.262,4.262,0,0,1,53.161,48.9Zm11.71,15.968H62.742V60.613H60.613v4.258H54.226V60.613H52.1v4.258H49.968V62.742a7.452,7.452,0,1,1,14.9,0Z" transform="translate(-1 -1)"/>
  <path id="Path_178" data-name="Path 178" d="M38,38h2.129v2.129H38Z" transform="translate(1.387 1.387)"/>
  <path id="Path_179" data-name="Path 179" d="M42,38h2.129v2.129H42Z" transform="translate(1.645 1.387)"/>
  <path id="Path_180" data-name="Path 180" d="M46,38h2.129v2.129H46Z" transform="translate(1.903 1.387)"/>
  <path id="Path_181" data-name="Path 181" d="M16,38h2.129v2.129H16Z" transform="translate(-0.032 1.387)"/>
  <path id="Path_182" data-name="Path 182" d="M20,38h2.129v2.129H20Z" transform="translate(0.226 1.387)"/>
  <path id="Path_183" data-name="Path 183" d="M24,38h2.129v2.129H24Z" transform="translate(0.484 1.387)"/>
</svg>
