<svg xmlns="http://www.w3.org/2000/svg" width="93" height="93" viewBox="0 0 93 93">
  <g id="Exam" transform="translate(3302 -5635)">
    <g id="Rectangle_179" data-name="Rectangle 179" transform="translate(-3302 5635)" fill="#fff" stroke="#707070" stroke-width="1" opacity="0">
      <rect width="93" height="93" stroke="none"/>
      <rect x="0.5" y="0.5" width="92" height="92" fill="none"/>
    </g>
    <g id="examination" transform="translate(-3332 5605)">
      <path id="Path_1028" data-name="Path 1028" d="M213.536,112.322H173.357A5.357,5.357,0,0,1,168,106.965V45.357A5.357,5.357,0,0,1,173.357,40H205.5l13.393,12.054v54.911A5.357,5.357,0,0,1,213.536,112.322Z" transform="translate(-106.571)" fill="#fabe19"/>
      <path id="Path_1029" data-name="Path 1029" d="M392,40v6.7a5.357,5.357,0,0,0,5.357,5.357h8.036Z" transform="translate(-293.071)" fill="#f5871e"/>
      <path id="Path_1030" data-name="Path 1030" d="M90.679,40a2.679,2.679,0,0,1,2.679,2.679v2.679H88V42.679A2.679,2.679,0,0,1,90.679,40Z" transform="translate(-39.964)" fill="#55525b"/>
      <path id="Path_1031" data-name="Path 1031" d="M104,40a2.679,2.679,0,0,1,2.679,2.679v2.679H104Z" transform="translate(-53.286)" fill="#353744"/>
      <path id="Path_1032" data-name="Path 1032" d="M72,104H82.714v33.483H72Z" transform="translate(-26.643 -53.286)" fill="#d7e6f0"/>
      <path id="Path_1033" data-name="Path 1033" d="M104,104h5.357v33.483H104Z" transform="translate(-53.286 -53.286)" fill="#a5c3dc"/>
      <path id="Path_1034" data-name="Path 1034" d="M72,304H82.714v21.429H72Z" transform="translate(-26.643 -219.803)" fill="#55525b"/>
      <path id="Path_1035" data-name="Path 1035" d="M104,304h5.357v21.429H104Z" transform="translate(-53.286 -219.803)" fill="#353744"/>
      <path id="Path_1036" data-name="Path 1036" d="M78.745,437.954,82.714,432H72l3.969,5.954a1.668,1.668,0,0,0,2.776,0Z" transform="translate(-26.643 -326.374)" fill="#a5c3dc"/>
      <path id="Path_1037" data-name="Path 1037" d="M96.507,464.6l.4-.6H93.333l.4.6a1.668,1.668,0,0,0,2.776,0Z" transform="translate(-44.404 -353.017)" fill="#353744"/>
      <path id="Path_1038" data-name="Path 1038" d="M45.357,90.679V88H42.679A2.679,2.679,0,0,0,40,90.679v16a2.729,2.729,0,0,0,2.549,2.751,2.679,2.679,0,1,0,.13-5.354V90.679Z" transform="translate(0 -39.964)" fill="#55525b"/>
      <path id="Path_1039" data-name="Path 1039" d="M74.679,72h5.357a2.679,2.679,0,0,1,2.679,2.679v2.679H72V74.679A2.679,2.679,0,0,1,74.679,72Z" transform="translate(-26.643 -26.643)" fill="#55525b"/>
      <path id="Path_1040" data-name="Path 1040" d="M104,72h2.679a2.679,2.679,0,0,1,2.679,2.679v2.679H104Z" transform="translate(-53.286 -26.643)" fill="#353744"/>
      <path id="Path_1041" data-name="Path 1041" d="M238.021,88a4.693,4.693,0,0,0-4.688,4.688v7.366a1.339,1.339,0,0,0,2.679,0V96.036h4.018v4.018a1.339,1.339,0,0,0,2.679,0V92.688A4.693,4.693,0,0,0,238.021,88Zm-2.009,5.357v-.67a2.009,2.009,0,1,1,4.018,0v.67Z" transform="translate(-160.967 -39.964)" fill="#6478b9"/>
      <path id="Path_1042" data-name="Path 1042" d="M196.723,56a12.723,12.723,0,1,0,12.723,12.723A12.723,12.723,0,0,0,196.723,56Zm0,22.768a10.045,10.045,0,1,1,10.045-10.045A10.045,10.045,0,0,1,196.723,78.768Z" transform="translate(-119.893 -13.321)" fill="#6478b9"/>
      <g id="Group_649" data-name="Group 649" transform="translate(66.191 73.674)">
        <rect id="Rectangle_186" data-name="Rectangle 186" width="26" height="5" rx="2.5" transform="translate(-0.191 0.326)" fill="#f5871e"/>
        <rect id="Rectangle_187" data-name="Rectangle 187" width="26" height="5" rx="2.5" transform="translate(-0.191 13.326)" fill="#f5871e"/>
        <rect id="Rectangle_188" data-name="Rectangle 188" width="26" height="6" rx="3" transform="translate(-0.191 26.326)" fill="#f5871e"/>
      </g>
      <path id="Path_1043" data-name="Path 1043" d="M376.929,232.043h-.018a2.009,2.009,0,0,1-1.428-.614l-2.63-2.727a2.009,2.009,0,0,1,2.892-2.789l1.21,1.255,3.911-3.911a2.009,2.009,0,0,1,2.841,2.841l-5.357,5.357A2.009,2.009,0,0,1,376.929,232.043Z" transform="translate(-276.661 -152.087)" fill="#6478b9"/>
      <path id="Path_1044" data-name="Path 1044" d="M376.929,314.713h-.018a2.009,2.009,0,0,1-1.428-.614l-2.63-2.727a2.009,2.009,0,1,1,2.893-2.789l1.21,1.256,3.911-3.911a2.009,2.009,0,0,1,2.841,2.841l-5.357,5.357A2.009,2.009,0,0,1,376.929,314.713Z" transform="translate(-276.661 -220.917)" fill="#6478b9"/>
      <path id="Path_1045" data-name="Path 1045" d="M376.929,389.379h-.018a2.01,2.01,0,0,1-1.428-.614l-2.63-2.727a2.009,2.009,0,1,1,2.892-2.789l1.21,1.256,3.911-3.911a2.009,2.009,0,1,1,2.841,2.841l-5.357,5.357A2.009,2.009,0,0,1,376.929,389.379Z" transform="translate(-276.66 -283.084)" fill="#6478b9"/>
    </g>
  </g>
</svg>
