<svg id="bill_2_" data-name="bill (2)" xmlns="http://www.w3.org/2000/svg" width="66" height="66" viewBox="0 0 66 66">
  <defs>
    <style>
      .cls-1 {
        fill: #00abf6;
      }

      .cls-2 {
        fill: #99ddfb;
      }
    </style>
  </defs>
  <g id="Group_30" data-name="Group 30" transform="translate(18.097 1.065)">
    <path id="Path_189" data-name="Path 189" class="cls-1" d="M28.645,59.29A10.645,10.645,0,1,1,39.29,48.645,10.657,10.657,0,0,1,28.645,59.29Z" transform="translate(-18 0.323)"/>
    <path id="Path_190" data-name="Path 190" class="cls-2" d="M48.645,13.086l-3.194-2.914-2.129,1.943-2.129-1.943L38,13.086V2H48.645Z" transform="translate(-16.71 -2)"/>
    <path id="Path_191" data-name="Path 191" class="cls-2" d="M49,21H59.645v5.323H49Z" transform="translate(-16 -0.774)"/>
  </g>
  <path id="Path_192" data-name="Path 192" d="M29.258,41H27.129v2.129H25v6.387h4.258v2.129H25v2.129h2.129V55.9h2.129V53.774h2.129V47.387H27.129V45.258h4.258V43.129H29.258Z" transform="translate(0.548 1.581)"/>
  <path id="Path_193" data-name="Path 193" d="M53.968,37H5V60.419H53.968Zm-2.129,5.171A4.251,4.251,0,0,1,48.8,39.129h3.042ZM46.612,58.29H12.356a6.4,6.4,0,0,0-5.227-5.227V44.356a6.4,6.4,0,0,0,5.227-5.227H46.612a6.4,6.4,0,0,0,5.227,5.227v8.709A6.393,6.393,0,0,0,46.612,58.29ZM10.171,39.129a4.249,4.249,0,0,1-3.042,3.042V39.129ZM7.129,55.248a4.249,4.249,0,0,1,3.042,3.042H7.129ZM48.8,58.29a4.251,4.251,0,0,1,3.042-3.042V58.29Z" transform="translate(-0.742 1.323)"/>
  <path id="Path_194" data-name="Path 194" d="M64.871,1H26.548a2.131,2.131,0,0,0-2.129,2.129V30.806H15.9V24.419H11.645a4.262,4.262,0,0,0-4.258,4.258v6.387H1V67H58.484V62.742h4.258V39.323h2.129A2.131,2.131,0,0,0,67,37.194V3.129A2.131,2.131,0,0,0,64.871,1ZM26.548,3.129H64.871v14.9H47.839V30.806H26.548Zm-14.9,23.419h2.129v4.258H11.645a2.129,2.129,0,0,1,0-4.258Zm44.71,38.323H3.129V37.194H56.355Zm4.258-4.258H58.484V35.065H9.516V32.344a4.214,4.214,0,0,0,2.129.592H60.613Zm2.129-23.419V30.806H49.968V20.161h14.9V37.194Z" transform="translate(-1 -1)"/>
  <path id="Path_195" data-name="Path 195" d="M49,25H59.645v2.129H49Z" transform="translate(2.097 0.548)"/>
  <path id="Path_196" data-name="Path 196" d="M49,21h2.129v2.129H49Z" transform="translate(2.097 0.29)"/>
  <path id="Path_197" data-name="Path 197" d="M53,21h6.387v2.129H53Z" transform="translate(2.355 0.29)"/>
</svg>
