<svg xmlns="http://www.w3.org/2000/svg" width="57" height="57" viewBox="0 0 57 57">
  <g id="Group_611" data-name="Group 611" transform="translate(0.274)">
    <g id="Rectangle_1" data-name="Rectangle 1" transform="translate(-0.275)" fill="#fff" stroke="#707070" stroke-width="1" opacity="0">
      <rect width="57" height="57" stroke="none"/>
      <rect x="0.5" y="0.5" width="56" height="56" fill="none"/>
    </g>
    <g id="Group_580" data-name="Group 580" transform="translate(4 4)">
      <g id="Flat">
        <circle id="Ellipse_59" data-name="Ellipse 59" cx="15" cy="15" r="15" transform="translate(-0.275)" fill="#529ddf"/>
        <circle id="Ellipse_60" data-name="Ellipse 60" cx="12" cy="12" r="12" transform="translate(1.725 2)" fill="#d4e4f0"/>
        <path id="Path_858" data-name="Path 858" d="M165.674,267.11,154.564,256,152,258.564l12.82,12.82Z" transform="translate(-138.326 -231.216)" fill="#4f5761"/>
        <path id="Path_859" data-name="Path 859" d="M0,0H3.626V6.043H0Z" transform="translate(12.814 31.62) rotate(-45)" fill="#68737f"/>
        <path id="Path_860" data-name="Path 860" d="M136,384h19.657v3.419H136Z" transform="translate(-124.035 -345.541)" fill="#68737f"/>
        <path id="Path_861" data-name="Path 861" d="M272,352h5.982v6.837H272Z" transform="translate(-245.506 -316.96)" fill="#d4e4f0"/>
        <path id="Path_862" data-name="Path 862" d="M216,384h11.965v3.419H216Z" transform="translate(-195.489 -345.541)" fill="#4f5761"/>
        <path id="Path_863" data-name="Path 863" d="M128,448h37.6v4.273H128Z" transform="translate(-116.89 -402.704)" fill="#529ddf"/>
        <path id="Path_864" data-name="Path 864" d="M380.82,220.983a11.964,11.964,0,0,1-11.965,11.965c-.287,0-.572-.01-.854-.031v-4.289a7.8,7.8,0,0,0,.855.047,7.693,7.693,0,0,0,1.709-15.193V209.14a11.966,11.966,0,0,1,10.256,11.843Z" transform="translate(-331.251 -189.362)" fill="#d4e4f0"/>
        <path id="Path_865" data-name="Path 865" d="M320.546,362.256H312l.142-1.709.713-8.546h6.837l.713,8.546Z" transform="translate(-281.233 -316.96)" fill="#529ddf"/>
        <circle id="Ellipse_61" data-name="Ellipse 61" cx="1.5" cy="1.5" r="1.5" transform="translate(24.725 36)" fill="#68737f"/>
        <path id="Path_866" data-name="Path 866" d="M394.564,234.564a2.444,2.444,0,0,1-.035.418A7.647,7.647,0,0,0,392,233.9V232A2.567,2.567,0,0,1,394.564,234.564Z" transform="translate(-352.687 -209.779)" fill="#c1d7e6"/>
        <path id="Path_867" data-name="Path 867" d="M359.692,106.564l-2.189,3.647-.375.626-2.154-.6L352,109.413,355.419,104Z" transform="translate(-316.96 -95.454)" fill="#68737f"/>
        <path id="Path_868" data-name="Path 868" d="M354.338,180.267l-1.645,2.055-1.6,2-2.05-1.538-2.843-2.131,1.475-3.071.88-1.832,5.106,3.989Z" transform="translate(-311.78 -159.539)" fill="#68737f"/>
        <path id="Path_869" data-name="Path 869" d="M382.369,160.229l-.375.626-2.154-.6A3.42,3.42,0,0,1,382.369,160.229Z" transform="translate(-341.826 -145.471)" fill="#4f5761"/>
        <path id="Path_870" data-name="Path 870" d="M307.11,139.419,303.9,144.46l-2.774,4.36L296,144.546,301.128,136l4.568,2.61Z" transform="translate(-266.942 -124.035)" fill="#529ddf"/>
        <path id="Path_871" data-name="Path 871" d="M233.709,216,232,219.419l1.709,1.709,3.419-2.564Z" transform="translate(-209.779 -195.489)" fill="#68737f"/>
        <path id="Path_872" data-name="Path 872" d="M267.419,248,264,251.419l2.564,2.564,4.273-3.419Z" transform="translate(-238.361 -224.07)" fill="#68737f"/>
        <path id="Path_873" data-name="Path 873" d="M248,216h5.128l5.128,4.273v4.273Z" transform="translate(-224.07 -195.489)" fill="#4f5761"/>
        <path id="Path_874" data-name="Path 874" d="M376.46,232.563l-1.6,2-2.05-1.538a2.559,2.559,0,0,1,3.65-.463Z" transform="translate(-335.547 -209.779)" fill="#4f5761"/>
        <circle id="Ellipse_62" data-name="Ellipse 62" cx="1.5" cy="1.5" r="1.5" transform="translate(37.725 23)" fill="#68737f"/>
        <path id="Path_875" data-name="Path 875" d="M366,179.739a3.417,3.417,0,0,1-5.987-2.157l.88-1.832Z" transform="translate(-324.114 -159.539)" fill="#4f5761"/>
        <path id="Path_876" data-name="Path 876" d="M364.272,161.239l-3.208,5.041a3.417,3.417,0,0,1,1.794-5.85Z" transform="translate(-324.104 -145.855)" fill="#4384c3"/>
        <ellipse id="Ellipse_63" data-name="Ellipse 63" cx="2.5" cy="2" rx="2.5" ry="2" transform="translate(36.725 16)" fill="#68737f"/>
        <path id="Path_877" data-name="Path 877" d="M320.546,433.709H312l.142-1.709H320.4Z" transform="translate(-281.233 -388.414)" fill="#4384c3"/>
      </g>
      <g id="Page-1" transform="translate(10.576 6.303)">
        <g id="_036---DNA-" data-name="036---DNA-" transform="translate(0 0)">
          <path id="Rectangle-path" d="M4.6,8H9.94v.568H4.6Z" transform="translate(-3.294 -5.73)" fill="#f0c419"/>
          <path id="Rectangle-path-2" data-name="Rectangle-path" d="M3,4H9.249v.568H3Z" transform="translate(-2.149 -2.865)" fill="#955ba5"/>
          <path id="Rectangle-path-3" data-name="Rectangle-path" d="M5.979,23H10.54v.568H5.979Z" transform="translate(-4.282 -16.473)" fill="#955ba5"/>
          <path id="Rectangle-path-4" data-name="Rectangle-path" d="M4,28H9.681v.568H4Z" transform="translate(-2.865 -20.054)" fill="#f0c419"/>
          <path id="Rectangle-path-5" data-name="Rectangle-path" d="M5,33h5.111v.568H5Z" transform="translate(-3.581 -23.635)" fill="#955ba5"/>
          <path id="Rectangle-path-6" data-name="Rectangle-path" d="M6.309,48H10.68v.568H6.309Z" transform="translate(-4.519 -34.378)" fill="#f0c419"/>
          <path id="Rectangle-path-7" data-name="Rectangle-path" d="M5,52h5.114v.568H5Z" transform="translate(-3.581 -37.243)" fill="#955ba5"/>
          <path id="Shape" d="M3.979,41.908H3.973A2.963,2.963,0,0,0,2.055,43.3a3.127,3.127,0,0,0-.326,1.135A5.5,5.5,0,0,0,1.7,45,.851.851,0,0,1,0,45,4.51,4.51,0,0,1,1.862,41.04Z" transform="translate(0 -29.393)" fill="#2fa8cc"/>
          <g id="Group_4" data-name="Group 4" transform="translate(0.002 0)">
            <path id="Shape-2" data-name="Shape" d="M14,3.945h.006a2.963,2.963,0,0,0,1.918-1.391,3.127,3.127,0,0,0,.326-1.135,5.5,5.5,0,0,0,.026-.568.851.851,0,1,1,1.7,0,4.51,4.51,0,0,1-1.862,3.962Z" transform="translate(-10.029)" fill="#75bdfc"/>
            <path id="Shape-3" data-name="Shape" d="M3.98,17.854a3.4,3.4,0,0,0-1.819,1.1,1.993,1.993,0,0,0-.451,1.337c0,.026,0,.054,0,.082a.923.923,0,0,1-.006.094A1.994,1.994,0,0,0,2.158,21.8,3.422,3.422,0,0,0,3.98,22.9c.068.02.136.04.21.057a5.685,5.685,0,0,1,1.9.837,4.51,4.51,0,0,1,1.862,3.962.851.851,0,0,1-1.7,0,5.5,5.5,0,0,0-.026-.568A3.127,3.127,0,0,0,5.9,26.053a2.963,2.963,0,0,0-1.918-1.391H3.977c-.065-.02-.133-.037-.2-.054a6.105,6.105,0,0,1-1.91-.814,4.07,4.07,0,0,1,0-6.834Z" transform="translate(-0.005 -12.147)" fill="#75bdfc"/>
            <path id="Shape-4" data-name="Shape" d="M8.674,17.854c-.068-.02-.136-.04-.21-.057a5.685,5.685,0,0,1-1.9-.837Z" transform="translate(-4.7 -12.147)" fill="#67b9cc"/>
          </g>
          <path id="Shape-5" data-name="Shape" d="M7.949,8.23A3.888,3.888,0,0,1,6.09,11.647a5.685,5.685,0,0,0-1.9-.837c-.074-.017-.142-.037-.21-.057a3.4,3.4,0,0,0,1.819-1.1,1.993,1.993,0,0,0,.451-1.337c0-.026,0-.054,0-.082a.923.923,0,0,1,.006-.094A1.994,1.994,0,0,0,5.8,6.811a3.422,3.422,0,0,0-1.822-1.1c-.068-.02-.136-.04-.21-.057a5.685,5.685,0,0,1-1.9-.837A4.51,4.51,0,0,1,0,.851a.851.851,0,1,1,1.7,0,5.5,5.5,0,0,0,.026.568,3.127,3.127,0,0,0,.326,1.135A2.963,2.963,0,0,0,3.973,3.945h.006c.065.02.133.037.2.054a6.105,6.105,0,0,1,1.91.814A3.888,3.888,0,0,1,7.949,8.23Z" transform="translate(0 0)" fill="#529ddf"/>
        </g>
      </g>
    </g>
  </g>
</svg>
