<svg xmlns="http://www.w3.org/2000/svg" width="57" height="57" viewBox="0 0 57 57">
  <g id="Group_610" data-name="Group 610" transform="translate(0.436)">
    <g id="Rectangle_44" data-name="Rectangle 44" transform="translate(-0.436)" fill="#fff" stroke="#707070" stroke-width="1" opacity="0">
      <rect width="57" height="57" stroke="none"/>
      <rect x="0.5" y="0.5" width="56" height="56" fill="none"/>
    </g>
    <g id="tooth" transform="translate(9 5)">
      <path id="Path_878" data-name="Path 878" d="M95.039,57.826a1.772,1.772,0,0,1-1.065-.355,1.845,1.845,0,0,1-.355-2.485A13.437,13.437,0,0,1,96.577,52.2a1.8,1.8,0,0,1,2.485.473,1.549,1.549,0,0,1,.3,1.006,1.85,1.85,0,0,1-.769,1.479A11.629,11.629,0,0,0,96.4,57.175,1.683,1.683,0,0,1,95.039,57.826Z" transform="translate(-86.159 -46.023)" fill="#11e0a8"/>
      <path id="Path_879" data-name="Path 879" d="M57.117,46.569h-.237c-2.6,0-4.083-3.136-5.089-5.917v-.059l-1.42-4.615-1.479,4.615v.059c-1.065,2.9-2.485,5.917-5.089,5.917h-.355c-2.071-.177-3.728-1.716-4.911-4.5A28.645,28.645,0,0,1,36.7,34.261c-.118-.947-.3-1.834-.473-2.722-.059-.3-.118-.71-.237-1.183-.355-1.716-1.124-5.8-1.953-6.864l-.059-.059c-.059-.059-.118-.177-.177-.237s-.118-.177-.177-.237a14.082,14.082,0,0,1-.414-17.634,1.038,1.038,0,0,1,.237-.3A13.639,13.639,0,0,1,44.1,0a13.968,13.968,0,0,1,7.219,2.012A14.838,14.838,0,0,1,62.147,1.3a11.331,11.331,0,0,1,7.219,7.752A16.278,16.278,0,0,1,66.7,23.61c-.828,1.065-1.6,5.148-1.953,6.864-.118.473-.177.888-.237,1.183-.177.828-.355,1.716-.473,2.663a33.065,33.065,0,0,1-1.834,7.811c-1.479,3.491-3.491,4.379-4.911,4.5A.218.218,0,0,0,57.117,46.569ZM57,43.019h0c.592-.118,1.3-.947,1.894-2.367a28.729,28.729,0,0,0,1.6-6.864c.118-1.065.3-2.012.473-2.959.059-.3.118-.71.237-1.124.651-3.491,1.361-6.746,2.6-8.343A12.61,12.61,0,0,0,65.875,10a7.793,7.793,0,0,0-4.911-5.385,11.518,11.518,0,0,0-9.053.947,1.826,1.826,0,0,1-1.893-.177A10.037,10.037,0,0,0,44.04,3.432,9.837,9.837,0,0,0,38.3,5.207,11.141,11.141,0,0,0,36.17,7.16a1.292,1.292,0,0,0-.177.3,10.611,10.611,0,0,0-2.189,6.45,10.331,10.331,0,0,0,2.544,6.8c.059.059.118.118.118.177.059.059.118.177.177.237a1.286,1.286,0,0,0,.237.3c1.183,1.6,1.893,4.852,2.544,8.284.059.414.177.828.237,1.124.177.947.355,1.953.473,3.018a26.73,26.73,0,0,0,1.6,6.864c.355.828,1.065,2.249,1.893,2.367h0c.177-.118.828-.769,1.834-3.55l2.663-8.343a.058.058,0,0,1,.059-.059,2.322,2.322,0,0,1,2.189-1.479,2.382,2.382,0,0,1,2.189,1.479c0,.059,0,.059.059.118l2.6,8.343C56.111,42.19,56.821,42.9,57,43.019Z" transform="translate(-30.312)" fill="#11e0a8"/>
    </g>
  </g>
</svg>
