<svg id="hospital" xmlns="http://www.w3.org/2000/svg" width="109.562" height="109.562" viewBox="0 0 109.562 109.562">
  <defs>
    <style>
      .cls-1 {
        fill: #dff5ff;
      }

      .cls-2 {
        fill: #00abf6;
      }

      .cls-3 {
        fill: #fff;
      }
    </style>
  </defs>
  <rect id="Rectangle_43" data-name="Rectangle 43" class="cls-1" width="14" height="25" transform="translate(48 82)"/>
  <path id="Path_228" data-name="Path 228" d="M109.562,143.808V136.74a7.076,7.076,0,0,0-7.069-7.068H79.521V112H70.685v3.534h5.3v77.754H68.918V166.781a5.308,5.308,0,0,0-5.3-5.3H45.945a5.308,5.308,0,0,0-5.3,5.3v26.507H33.575V115.534h5.3V112H30.041v17.671H7.069A7.076,7.076,0,0,0,0,136.74v7.069H5.3v49.48H0v3.534H109.562v-3.534h-5.3v-49.48Zm-7.069-10.6a3.538,3.538,0,0,1,3.534,3.534v3.534H79.521v-7.068Zm-8.836,21.206v7.069H86.589v-7.069Zm-10.6,7.069H79.521v-7.069h3.534Zm10.6,10.6v7.069H86.589v-7.069Zm-10.6,7.069H79.521v-7.069h3.534Zm-17.671-12.37v26.507H56.548v-12.37h3.534v-3.534H56.548v-12.37h7.069A1.768,1.768,0,0,1,65.384,166.781Zm-21.206,0a1.768,1.768,0,0,1,1.767-1.767h7.069v12.37H49.48v3.534h3.534v12.37H44.178ZM15.9,179.151v-7.069h7.069v7.069Zm10.6-7.069h3.534v7.069H26.507Zm-10.6-10.6v-7.069h7.069v7.069Zm10.6-7.069h3.534v7.069H26.507ZM3.534,136.74a3.538,3.538,0,0,1,3.534-3.534H30.041v7.068H3.534Zm5.3,7.069H30.041v7.069H12.37v14.137H30.041v3.534H12.37v14.137H30.041v10.6H8.836Zm91.891,49.48H79.521v-10.6H97.192V168.548H79.521v-3.534H97.192V150.877H79.521v-7.069h21.206Z" transform="translate(0 -87.26)"/>
  <path id="Path_229" data-name="Path 229" d="M168,254.137h35.343V240H168Zm14.137-3.534v-7.068h7.069V250.6Zm17.671,0H192.74v-7.068h7.069Zm-28.274-7.068H178.6V250.6h-7.069Z" transform="translate(-130.89 -186.986)"/>
  <path id="Path_230" data-name="Path 230" d="M203.343,160H168v14.137h35.343Zm-14.137,3.534V170.6h-7.069v-7.068Zm-17.671,0H178.6V170.6h-7.069Zm28.274,7.068H192.74v-7.068h7.069Z" transform="translate(-130.89 -124.657)"/>
  <ellipse id="Ellipse_33" data-name="Ellipse 33" class="cls-2" cx="19" cy="19.5" rx="19" ry="19.5" transform="translate(36)"/>
  <path id="Path_231" data-name="Path 231" class="cls-3" d="M199.069,56.74h10.6V49.671h7.068v-10.6h-7.068V32h-10.6v7.069H192v10.6h7.069Zm-3.534-10.6V42.6H202.6V35.534h3.534V42.6h7.069v3.534h-7.069v7.069H202.6V46.137Z" transform="translate(-149.589 -24.931)"/>
</svg>
