<svg xmlns="http://www.w3.org/2000/svg" width="85.926" height="109.562" viewBox="0 0 85.926 109.562">
  <defs>
    <style>
      .cls-1, .cls-10 {
        fill: #00abf6;
      }

      .cls-2, .cls-9 {
        fill: #dff5ff;
      }

      .cls-3 {
        fill: #c6ecfd;
      }

      .cls-4, .cls-6, .cls-8 {
        fill: #edf9ff;
      }

      .cls-5, .cls-6 {
        opacity: 0.16;
      }

      .cls-7 {
        fill: #fff;
      }

      .cls-8 {
        opacity: 0.99;
      }

      .cls-9 {
        opacity: 0.57;
      }

      .cls-10 {
        opacity: 0.02;
      }

      .cls-11 {
        fill: #474d54;
      }
    </style>
  </defs>
  <g id="chat_1_" data-name="chat (1)" transform="translate(-19.897 -19.017)">
    <path id="Path_3" data-name="Path 3" class="cls-1" d="M117.453,132.22a21.144,21.144,0,0,0-21.144,21.145v8.367a6.741,6.741,0,0,1,5.386-1.76v-1.054a1.441,1.441,0,0,1,1.544-1.436,37.854,37.854,0,0,0,22.785-6.12,1.44,1.44,0,0,1,1.842.225c5.378,5.781,5.345,5.557,5.345,6.312v2.069a6.4,6.4,0,0,1,5.385,1.575v-8.178A21.143,21.143,0,0,0,117.453,132.22Z" transform="translate(-54.795 -111.082)"/>
    <path id="Path_4" data-name="Path 4" class="cls-2" d="M101.985,153.366a21.144,21.144,0,0,1,18.307-20.949,21.119,21.119,0,0,0-23.982,20.95v8.367a6.741,6.741,0,0,1,5.386-1.76v-1.054a1.431,1.431,0,0,1,.289-.863v-4.691Z" transform="translate(-54.795 -111.083)"/>
    <path id="Path_5" data-name="Path 5" class="cls-3" d="M225.742,227.127v11.583c0,.126-.007.25-.01.375a6.1,6.1,0,1,0,.01-11.957Z" transform="translate(-147.604 -178.081)"/>
    <path id="Path_6" data-name="Path 6" class="cls-4" d="M97.835,238.789V227.21c-3.569-.476-7.3,2.262-7.3,5.975a6.144,6.144,0,0,0,7.309,5.978C97.841,239.038,97.835,238.914,97.835,238.789Z" transform="translate(-50.654 -179.16)"/>
    <g id="Group_4" data-name="Group 4" class="cls-5" transform="translate(39.881 48.965)">
      <path id="Path_7" data-name="Path 7" class="cls-4" d="M230.87,228.476a6.429,6.429,0,0,0-5.128-1.349V238.71c0,.126-.007.25-.01.375a6.424,6.424,0,0,0,5.137-1.349Z" transform="translate(-187.485 -223.046)"/>
      <path id="Path_8" data-name="Path 8" class="cls-1" d="M97.836,237.816a6,6,0,0,1-2.172-4.63,5.788,5.788,0,0,1,2.172-4.442v-1.532c-3.569-.476-7.3,2.262-7.3,5.975a6.144,6.144,0,0,0,7.309,5.978c0-.125-.009-.25-.009-.375Z" transform="translate(-90.536 -227.126)"/>
    </g>
    <path id="Path_9" data-name="Path 9" class="cls-6" d="M149.354,315.246a16.308,16.308,0,0,1-8.873-2.507v8.3l8.835,10.906,8.835-10.906V312.5A15.445,15.445,0,0,1,149.354,315.246Z" transform="translate(-86.471 -240.364)"/>
    <path id="Path_10" data-name="Path 10" class="cls-1" d="M146.14,315.546a15.82,15.82,0,0,1-5.658-2.214v8.3l5.658,6.985Z" transform="translate(-86.471 -240.957)"/>
    <path id="Path_11" data-name="Path 11" class="cls-7" d="M100.406,349.736l-23.373-9.052L68.2,351.59l-8.835-10.906-23.349,9.052s-8.645,3.554-8.645,13.409v21.872a2.011,2.011,0,0,0,2.011,2.011h77.678a1.993,1.993,0,0,0,1.993-1.993V363.145C109.051,353.29,100.406,349.736,100.406,349.736Z" transform="translate(-5.358 -260.571)"/>
    <path id="Path_12" data-name="Path 12" class="cls-1" d="M33.049,404.388V379.97A14.461,14.461,0,0,1,39.673,367.7l-3.637,1.41s-8.645,3.554-8.645,13.409v21.872A2.011,2.011,0,0,0,29.4,406.4H35.06A2.011,2.011,0,0,1,33.049,404.388Z" transform="translate(-5.374 -279.942)"/>
    <path id="Path_13" data-name="Path 13" class="cls-7" d="M141.522,197.534a1.44,1.44,0,0,0-1.842-.225,37.853,37.853,0,0,1-22.785,6.12,1.441,1.441,0,0,0-1.544,1.436V217.5a15.76,15.76,0,0,0,31.517,0V203.846C146.867,203.091,146.9,203.315,141.522,197.534Z" transform="translate(-68.449 -157.589)"/>
    <path id="Path_14" data-name="Path 14" class="cls-8" d="M121.006,233.594V219.558a33.062,33.062,0,0,1-4.114-.033,1.441,1.441,0,0,0-1.544,1.436v12.632A15.938,15.938,0,0,0,133.936,248.9,15.556,15.556,0,0,1,121.006,233.594Z" transform="translate(-68.448 -173.685)"/>
    <g id="Group_5" data-name="Group 5" transform="translate(45.584 80.113)">
      <path id="Path_15" data-name="Path 15" class="cls-9" d="M182.38,357.193l6.607-13.241-8.44-3.269-8.835,10.906,8.614,6.118A1.394,1.394,0,0,0,182.38,357.193Z" transform="translate(-154.45 -340.683)"/>
      <path id="Path_16" data-name="Path 16" class="cls-9" d="M117.3,357.193l-6.607-13.241,8.44-3.269,8.835,10.906-8.614,6.118A1.393,1.393,0,0,1,117.3,357.193Z" transform="translate(-110.694 -340.683)"/>
    </g>
    <path id="Path_17" data-name="Path 17" class="cls-9" d="M155.844,379.242v-.008l-.005,0-.005,0v.008l-6.265,4.45,2.962,4.457h6.618l2.962-4.457Z" transform="translate(-92.987 -288.215)"/>
    <path id="Path_18" data-name="Path 18" class="cls-1" d="M144.169,437.269h15.6l-4.489-26.524h-6.618Z" transform="translate(-89.115 -310.811)"/>
    <path id="Path_19" data-name="Path 19" class="cls-10" d="M158.974,381.464l-3.13-2.223v-.008l-.005,0-.005,0v.008l-6.265,4.45,2.962,4.457H158.8l-2.432-3.66a.987.987,0,0,1,.251-1.352Z" transform="translate(-92.987 -288.215)"/>
    <path id="Path_20" data-name="Path 20" class="cls-2" d="M148.657,410.745l-4.489,26.524h6.271l4.489-26.524Z" transform="translate(-89.114 -310.811)"/>
    <g id="Group_7" data-name="Group 7" transform="translate(19.897 19.017)">
      <path id="Path_26" data-name="Path 26" class="cls-11" d="M105.823,230.169v-6.317a2.122,2.122,0,1,0-4.244,0v6.189H91.111V211.667a2.122,2.122,0,0,0-4.244,0v18.373H72.446L68.4,206.114l1.285-1.934.553.393a3.515,3.515,0,0,0,5.181-1.3h0l5.744-11.512,13.1,5.073a12.6,12.6,0,0,1,7.321,11.443v15.571a4.671,4.671,0,0,1,2.122-.946,5.318,5.318,0,0,1,2.122,1.058s0-9.6,0-10.014v-5.67c0-11.149-9.553-15.2-9.96-15.371l-.04-.016L73.8,184.366V179.48a17.662,17.662,0,0,0,6.554-11.325,8.283,8.283,0,0,0,4.653-1.972,8.149,8.149,0,0,0,.915-11.421v-6.773a23.266,23.266,0,0,0-46.532,0v6.951a7.706,7.706,0,0,0-1.914,5.071,8.131,8.131,0,0,0,2.829,6.172,8.28,8.28,0,0,0,4.662,1.972,17.866,17.866,0,0,0,6.919,11.607v4.6L29.9,192.893l-.04.016c-.407.167-9.96,4.223-9.96,15.371v21.872a4.138,4.138,0,0,0,4.133,4.133h77.678A4.121,4.121,0,0,0,105.823,230.169Zm-28.64-39.944L72,200.62l-1.615-1.147-.028-.021L65.92,196.3l6.439-7.948Zm-14.33,9.107,3.365,2.39-1.193,1.8H60.682l-1.193-1.8Zm0-5.986-6.719-8.294V182.3a21.314,21.314,0,0,0,6.6.964h.648l.055,0,.064,0,.046,0,.064,0,.048,0,.059,0,.052,0,.06,0,.048,0,.064,0,.046,0,.062,0,.049,0,.063,0,.042,0,.07-.005.036,0,.076-.006.027,0,.083-.007.023,0,.084-.008.026,0,.084-.008.015,0a17.522,17.522,0,0,0,4.835-1.215v3.108l-1.289,1.591ZM82.36,157.16l.038.034a3.9,3.9,0,0,1-.152,5.77,4.024,4.024,0,0,1-1.7.864v-7.635a4.1,4.1,0,0,1,1.115.444l.019.011.025.015A4,4,0,0,1,82.36,157.16Zm-37.58,6.668a4.024,4.024,0,0,1-1.7-.863,3.891,3.891,0,0,1-1.352-2.955,3.641,3.641,0,0,1,1.181-2.611l.053-.048a4.747,4.747,0,0,1,1.821-1.044v7.521Zm1.4-13.675q-.133.1-.257.217a3.575,3.575,0,0,0-.984,1.57,8.835,8.835,0,0,0-1.3.278v-4.229a19.022,19.022,0,1,1,38.045,0V152.1a8.524,8.524,0,0,0-1.141-.212c-.007-1.376-.293-1.68-3.3-4.881l-.265-.283-.069-.074-.959-1.024-.163-.174-.408-.437-.595-.638-.107-.115-.052-.056h0c-.037-.04-.075-.078-.113-.116h0a3.554,3.554,0,0,0-4.443-.439,36.416,36.416,0,0,1-8.153,3.963l-.12.041q-.373.125-.747.242l-.084.026q-.219.068-.439.133-.869.258-1.746.471-.444.108-.89.2-.316.068-.632.131l-.068.013q-.559.109-1.12.2l-.125.02q-.707.112-1.415.194l-.338.037a32.539,32.539,0,0,1-3.372.182q-1.115,0-2.216-.077A3.557,3.557,0,0,0,46.179,150.153Zm2.853,15.906c0-.041,0-.081,0-.122l0-.142c0-.06,0-.12,0-.181V153.707q.907.045,1.824.043a40.022,40.022,0,0,0,18.085-4.53l.169-.088q1.436-.752,2.807-1.618l.912.977c.5.538.943,1.007,1.329,1.419,1.05,1.119,1.811,1.931,2.147,2.33v13.375c0,.014,0,.029,0,.043,0,.042,0,.084,0,.126l0,.153c0,.044,0,.088,0,.132A13.41,13.41,0,0,1,70.569,176.6c-.031.019-.062.039-.092.06a13.317,13.317,0,0,1-5.32,2.172h-.006l-.115.019-.023,0c-.109.018-.218.033-.328.048l-.049.007-.089.012-.059.007-.121.014-.094.01-.073.007-.078.007-.072.006-.091.008-.056,0-.143.01-.054,0-.1.006-.054,0-.126.006H63.4l-.151,0H63.2l-.114,0h-.2A13.5,13.5,0,0,1,49.032,166.06Zm4.308,22.3,6.44,7.95-4.425,3.143-.027.02-1.617,1.148-5.187-10.395Zm-.077,41.681H38.854V211.667a2.122,2.122,0,0,0-4.244,0v18.373H24.141V208.28a12.6,12.6,0,0,1,7.318-11.441l13.09-5.075,5.744,11.512h0a3.515,3.515,0,0,0,5.181,1.3l.553-.393,1.285,1.934Zm4.3,0,3.771-22.28H64.37l3.771,22.28Z" transform="translate(-19.897 -124.723)"/>
    </g>
  </g>
</svg>
