<svg xmlns="http://www.w3.org/2000/svg" width="41.753" height="35.712" viewBox="0 0 41.753 35.712">
  <defs>
    <style>
      .cls-1 {
        opacity: 0.97;
      }

      .cls-2 {
        fill: #00abf6;
      }

      .cls-3 {
        fill: #e1effb;
      }

      .cls-3, .cls-4, .cls-6, .cls-9 {
        opacity: 0;
      }

      .cls-4 {
        fill: #baced8;
      }

      .cls-5 {
        fill: #99ddfb;
      }

      .cls-6 {
        fill: #11b9c1;
      }

      .cls-7 {
        fill: #f9644b;
      }

      .cls-8 {
        fill: #9cdefb;
      }
    </style>
  </defs>
  <g id="ecg" class="cls-1">
    <g id="Group_109" data-name="Group 109" transform="translate(4.313 30.751)">
      <path id="Path_331" data-name="Path 331" class="cls-2" d="M55.768,418.478H53.534a.65.65,0,0,1-.65-.65v-3.7h3.534v3.7A.65.65,0,0,1,55.768,418.478Z" transform="translate(-52.884 -414.129)"/>
      <path id="Path_332" data-name="Path 332" class="cls-2" d="M418.666,418.478h-2.235a.65.65,0,0,1-.65-.65v-3.7h3.534v3.7A.649.649,0,0,1,418.666,418.478Z" transform="translate(-386.188 -414.129)"/>
    </g>
    <path id="Path_333" data-name="Path 333" class="cls-3" d="M46.86,76.275H8.67a1.17,1.17,0,0,1-1.17-1.17v-29.4a1.17,1.17,0,0,1,1.17-1.17H46.86a1.17,1.17,0,0,1,1.17,1.17v29.4A1.17,1.17,0,0,1,46.86,76.275Z" transform="translate(-6.888 -43.926)"/>
    <path id="Path_334" data-name="Path 334" class="cls-4" d="M458.632,44.538h-2.8V76.275h2.8a1.17,1.17,0,0,0,1.17-1.17v-29.4A1.17,1.17,0,0,0,458.632,44.538Z" transform="translate(-418.661 -43.926)"/>
    <path id="Path_335" data-name="Path 335" class="cls-5" d="M41.044,100.412v-22a.333.333,0,0,1,.333-.333H75.769a.333.333,0,0,1,.333.333v22a.333.333,0,0,1-.333.333H41.377A.333.333,0,0,1,41.044,100.412Z" transform="translate(-37.697 -74.735)"/>
    <path id="Path_336" data-name="Path 336" class="cls-6" d="M425.466,78.082H421.79v22.663h3.676a.334.334,0,0,0,.333-.333v-22A.334.334,0,0,0,425.466,78.082Z" transform="translate(-387.394 -74.735)"/>
    <path id="Path_337" data-name="Path 337" class="cls-7" d="M366.61,110.705a3.035,3.035,0,0,1-3.83,0c-1.447.436-1.438,2.691,1,4.28.288.188.744.448.893.533h.048c.149-.086.6-.346.893-.533C368.048,113.4,368.057,111.141,366.61,110.705Z" transform="translate(-332.294 -104.627)"/>
    <circle id="Ellipse_35" data-name="Ellipse 35" class="cls-8" cx="1.235" cy="1.235" r="1.235" transform="translate(35.193 27.973)"/>
    <path id="Path_338" data-name="Path 338" d="M85.112,188.614h4.5l2.833,2.833a.891.891,0,0,0,1.522-.63v-4.683l2.32,2.3a.886.886,0,0,0,.628.258h2.875l2.764,2.764a.891.891,0,0,0,1.522-.63v-4.76l2.592,2.394a.889.889,0,0,0,.6.237h4.585a.612.612,0,0,0,0-1.223H107.4l-3.053-2.821a.891.891,0,0,0-1.5.655v4.718l-2.295-2.295a.886.886,0,0,0-.63-.261H97.054L94.266,184.7a.891.891,0,0,0-1.519.633v4.678l-2.364-2.364a.886.886,0,0,0-.63-.261H85.112a.612.612,0,0,0,0,1.223Z" transform="translate(-77.609 -172.396)"/>
    <path id="Path_339" data-name="Path 339" d="M170.951,387.717H160.112a.612.612,0,0,0,0,1.223h10.839a.612.612,0,0,0,0-1.223Z" transform="translate(-146.493 -359.12)"/>
    <path id="Path_340" data-name="Path 340" d="M329.612,387.717h-1.583a.612.612,0,1,0,0,1.223h1.583a.612.612,0,1,0,0-1.223Z" transform="translate(-300.717 -359.12)"/>
    <path id="Path_341" data-name="Path 341" d="M39.971,37.038H1.781A1.783,1.783,0,0,0,0,38.819v29.4A1.783,1.783,0,0,0,1.781,70H3.7v1.491A1.263,1.263,0,0,0,4.962,72.75H7.2a1.263,1.263,0,0,0,1.261-1.261V70H33.295v1.491a1.263,1.263,0,0,0,1.261,1.261H36.79a1.263,1.263,0,0,0,1.261-1.261V70h1.92a1.783,1.783,0,0,0,1.781-1.781v-29.4A1.783,1.783,0,0,0,39.971,37.038ZM7.235,71.489a.038.038,0,0,1-.038.038H4.962a.038.038,0,0,1-.038-.038V70h2.31S7.235,71.489,7.235,71.489Zm29.594,0a.038.038,0,0,1-.038.038H34.556a.038.038,0,0,1-.038-.038V70h2.31Zm3.7-3.272a.559.559,0,0,1-.558.558H1.781a.559.559,0,0,1-.558-.558v-29.4a.559.559,0,0,1,.558-.558h38.19a.559.559,0,0,1,.558.558v29.4Z" transform="translate(0 -37.038)"/>
    <path id="Path_342" data-name="Path 342" class="cls-9" d="M68.881,70.582H39.848a.612.612,0,1,0,0,1.223H68.6v21.44H34.768V71.805h2.225a.612.612,0,1,0,0-1.223h-2.5a.946.946,0,0,0-.945.945v22a.946.946,0,0,0,.945.945H68.881a.946.946,0,0,0,.945-.945v-22A.946.946,0,0,0,68.881,70.582Z" transform="translate(-30.809 -67.847)"/>
    <path id="Path_343" data-name="Path 343" d="M356.564,108.59c.28.183.7.425.883.529l.039.022a.611.611,0,0,0,.3.082h.048a.611.611,0,0,0,.3-.082l.039-.022c.18-.1.6-.346.883-.529,1.868-1.219,2.379-2.732,2.234-3.741a1.955,1.955,0,0,0-1.393-1.637,5.387,5.387,0,0,1-4.183,0,1.955,1.955,0,0,0-1.393,1.637C354.185,105.858,354.7,107.371,356.564,108.59Zm-1.023-3.567a.735.735,0,0,1,.535-.64,1.115,1.115,0,0,1,.322-.051,1.352,1.352,0,0,1,.968.561.612.612,0,0,0,.9,0,1.183,1.183,0,0,1,1.29-.511.735.735,0,0,1,.535.639c.087.607-.3,1.638-1.691,2.543-.165.108-.4.245-.583.353-.187-.109-.417-.246-.583-.353C355.844,106.66,355.454,105.63,355.541,105.023Z" transform="translate(-325.414 -97.72)"/>
    <path id="Path_344" data-name="Path 344" d="M425.913,372.568a1.847,1.847,0,1,0,1.847,1.847A1.849,1.849,0,0,0,425.913,372.568Zm0,2.471a.624.624,0,1,1,.624-.624A.624.624,0,0,1,425.913,375.039Z" transform="translate(-389.484 -345.206)"/>
  </g>
</svg>
