<svg xmlns="http://www.w3.org/2000/svg" width="41.884" height="31.38" viewBox="0 0 41.884 31.38">
  <defs>
    <style>
      .cls-1 {
        fill: #595959;
      }

      .cls-2 {
        fill: #434343;
      }

      .cls-3 {
        fill: #dfdfdf;
      }

      .cls-4 {
        fill: #c1e2ff;
      }

      .cls-5 {
        fill: #f96850;
      }

      .cls-6 {
        fill: #070707;
      }
    </style>
  </defs>
  <g id="Group_164" data-name="Group 164" transform="translate(-859 -2123)">
    <g id="healthcare-and-medical_2_" data-name="healthcare-and-medical (2)" transform="translate(859 2123)">
      <g id="Group_110" data-name="Group 110" transform="translate(16.457 21.795)">
        <path id="Path_366" data-name="Path 366" class="cls-1" d="M201.173,330.633h8.97v8.97h-8.97Z" transform="translate(-201.173 -330.633)"/>
      </g>
      <g id="Group_111" data-name="Group 111" transform="translate(22.887 21.795)">
        <path id="Path_367" data-name="Path 367" class="cls-2" d="M279.781,330.633h2.54v8.97h-2.54Z" transform="translate(-279.781 -330.633)"/>
      </g>
      <g id="Group_112" data-name="Group 112" transform="translate(0.614 0.614)">
        <path id="Path_368" data-name="Path 368" class="cls-3" d="M46.538,97.649H9.137A1.627,1.627,0,0,1,7.51,96.022V73.34a1.627,1.627,0,0,1,1.627-1.627h37.4a1.627,1.627,0,0,1,1.627,1.627V96.022A1.627,1.627,0,0,1,46.538,97.649Z" transform="translate(-7.51 -71.713)"/>
      </g>
      <g id="Group_114" data-name="Group 114" transform="translate(0.614 0.614)">
        <path id="Path_370" data-name="Path 370" class="cls-4" d="M46.536,71.712H9.139A1.629,1.629,0,0,0,7.51,73.341V91.852H48.165V73.341A1.629,1.629,0,0,0,46.536,71.712Z" transform="translate(-7.51 -71.712)"/>
      </g>
      <g id="Group_124" data-name="Group 124" transform="translate(0 0)">
        <path id="Path_378" data-name="Path 378" d="M39.641,64.2H35.963a.614.614,0,0,0,0,1.229h3.678a1.016,1.016,0,0,1,1.015,1.015v17.9H8.65a.614.614,0,0,0,0,1.229H40.655v3.552a1.016,1.016,0,0,1-1.015,1.015H2.244a1.016,1.016,0,0,1-1.015-1.015V85.571H8.65c.339,0,.273-.614.273-.614s.067-.614-.273-.614H1.229v-17.9a1.016,1.016,0,0,1,1.015-1.015H36.021l.079-.561-.079-.667H2.244A2.246,2.246,0,0,0,0,66.445V89.123a2.246,2.246,0,0,0,2.243,2.244h13.6v2.987H14.015a.614.614,0,1,0,0,1.229H27.869a.614.614,0,1,0,0-1.229H26.042V91.366h13.6a2.246,2.246,0,0,0,2.243-2.244V66.445A2.246,2.246,0,0,0,39.641,64.2ZM24.813,94.353H17.071V91.366h7.742Z" transform="translate(0 -64.202)"/>
        <circle id="Ellipse_37" data-name="Ellipse 37" cx="1.048" cy="1.048" r="1.048" transform="translate(19.896 23.089) rotate(-13.3)"/>
      </g>
    </g>
    <g id="heart" transform="translate(870.641 2128.567)">
      <path id="Path_379" data-name="Path 379" class="cls-5" d="M4.5,42.773C3.86,41.2,0,40.414,0,44.345s4.5,5.5,4.5,5.5,4.5-1.572,4.5-5.5S5.147,41.2,4.5,42.773Zm0,0" transform="translate(0 -39.876)"/>
      <path id="Path_381" data-name="Path 381" class="cls-6" d="M117.5,11.718h-.01a.322.322,0,0,1-.31-.293l-.731-8.287-.882,5.734a.322.322,0,0,1-.316.273h0a.322.322,0,0,1-.317-.269l-.693-4.157L113.95,6a.322.322,0,0,1-.314.252h-5.79a.322.322,0,1,1,0-.643h5.533l.587-2.643a.326.326,0,0,1,.323-.252.322.322,0,0,1,.309.269l.635,3.81.981-6.38a.329.329,0,0,1,.328-.273.322.322,0,0,1,.31.293l.731,8.287.882-5.734a.322.322,0,0,1,.307-.273.314.314,0,0,1,.325.252l.587,2.643H122a.322.322,0,1,1,0,.643h-2.573A.322.322,0,0,1,119.112,6l-.272-1.223-1.026,6.671a.322.322,0,0,1-.318.273Zm0,0" transform="translate(-103.342 -0.137)"/>
    </g>
  </g>
</svg>
