<svg id="Group_162" data-name="Group 162" xmlns="http://www.w3.org/2000/svg" width="82.753" height="62" viewBox="0 0 82.753 62">
  <defs>
    <style>
      .cls-1 {
        fill: #595959;
      }

      .cls-2 {
        fill: #434343;
      }

      .cls-3 {
        fill: #dfdfdf;
      }

      .cls-4 {
        fill: #c1e2ff;
      }
    </style>
  </defs>
  <g id="healthcare-and-medical_2_" data-name="healthcare-and-medical (2)">
    <g id="Group_110" data-name="Group 110" transform="translate(32.515 43.063)">
      <path id="Path_366" data-name="Path 366" class="cls-1" d="M201.173,330.633H218.9v17.723H201.173Z" transform="translate(-201.173 -330.633)"/>
    </g>
    <g id="Group_111" data-name="Group 111" transform="translate(45.22 43.063)">
      <path id="Path_367" data-name="Path 367" class="cls-2" d="M279.781,330.633H284.8v17.723h-5.018Z" transform="translate(-279.781 -330.633)"/>
    </g>
    <g id="Group_112" data-name="Group 112" transform="translate(1.214 1.214)">
      <path id="Path_368" data-name="Path 368" class="cls-3" d="M84.621,122.956h-73.9a3.214,3.214,0,0,1-3.214-3.214V74.927a3.214,3.214,0,0,1,3.214-3.214h73.9a3.214,3.214,0,0,1,3.214,3.214v44.814A3.214,3.214,0,0,1,84.621,122.956Z" transform="translate(-7.51 -71.713)"/>
    </g>
    <g id="Group_114" data-name="Group 114" transform="translate(1.214 1.214)">
      <path id="Path_370" data-name="Path 370" class="cls-4" d="M84.617,71.712H10.729A3.219,3.219,0,0,0,7.51,74.931V111.5H87.836V74.931A3.219,3.219,0,0,0,84.617,71.712Z" transform="translate(-7.51 -71.712)"/>
    </g>
    <g id="Group_124" data-name="Group 124">
      <path id="Path_378" data-name="Path 378" d="M78.321,64.2H71.054a1.214,1.214,0,0,0,0,2.428h7.266a2.007,2.007,0,0,1,2,2v35.359H17.09a1.214,1.214,0,0,0,0,2.428H80.326v7.019a2.007,2.007,0,0,1-2,2H4.433a2.007,2.007,0,0,1-2-2v-7.019H17.09c.67,0,.539-1.214.539-1.214s.131-1.214-.539-1.214H2.428V68.635a2.007,2.007,0,0,1,2-2H71.169l.157-1.109L71.169,64.2H4.433A4.438,4.438,0,0,0,0,68.635V113.44a4.438,4.438,0,0,0,4.433,4.433H31.3v5.9H27.69a1.214,1.214,0,0,0,0,2.428H55.063a1.214,1.214,0,1,0,0-2.428H51.452v-5.9H78.321a4.438,4.438,0,0,0,4.433-4.433V68.635A4.438,4.438,0,0,0,78.321,64.2Zm-29.3,59.572h-15.3v-5.9h15.3Z" transform="translate(0 -64.202)"/>
      <circle id="Ellipse_37" data-name="Ellipse 37" cx="2.07" cy="2.07" r="2.07" transform="translate(39.311 45.619) rotate(-13.3)"/>
    </g>
  </g>
</svg>
