<svg xmlns="http://www.w3.org/2000/svg" xmlns:xlink="http://www.w3.org/1999/xlink" width="48" height="48" viewBox="0 0 48 48">
  <defs>
    <linearGradient id="linear-gradient" x1="0.181" y1="0.173" x2="0.831" y2="0.5" gradientUnits="objectBoundingBox">
      <stop offset="0" stop-color="#ff26af"/>
      <stop offset="1" stop-color="#ff84eb"/>
    </linearGradient>
  </defs>
  <g id="Group_623" data-name="Group 623" transform="translate(-860 -1184)">
    <g id="Rectangle_132" data-name="Rectangle 132" transform="translate(860 1184)" fill="#fff" stroke="#707070" stroke-width="1" opacity="0">
      <rect width="48" height="48" stroke="none"/>
      <rect x="0.5" y="0.5" width="47" height="47" fill="none"/>
    </g>
    <g id="Group_420" data-name="Group 420" transform="translate(-4768.626 -3814.541)">
      <path id="Path_630" data-name="Path 630" d="M184.768,150.638v30.511a1.1,1.1,0,0,1-1.1,1.1h-39.9a1.1,1.1,0,0,1-1.1-1.1V150.638a1.1,1.1,0,0,1,1.1-1.1h39.9A1.1,1.1,0,0,1,184.768,150.638Z" transform="translate(5488.956 4857)" fill="#5c6376"/>
      <path id="Path_631" data-name="Path 631" d="M439.068,150.638v30.511a1.1,1.1,0,0,1-1.1,1.1h-1.957V149.541h1.957A1.1,1.1,0,0,1,439.068,150.638Z" transform="translate(5234.656 4857)" fill="#4c5568"/>
      <path id="Path_632" data-name="Path 632" d="M273.884,250.883l5.719-3.016a.868.868,0,0,0,0-1.536l-5.719-3.016a.868.868,0,0,0-1.273.768v6.031A.868.868,0,0,0,273.884,250.883Z" transform="translate(5376.311 4775.794)" fill="url(#linear-gradient)"/>
      <g id="Group_419" data-name="Group 419" transform="translate(5635.398 5010.09)">
        <path id="Path_633" data-name="Path 633" d="M175.305,180.313h-3.2a1.1,1.1,0,0,1-1.1-1.1V177.3a1.1,1.1,0,0,1,1.1-1.1h3.2a1.1,1.1,0,0,1,1.1,1.1v1.913A1.1,1.1,0,0,1,175.305,180.313Z" transform="translate(-171.009 -176.206)" fill="#eaeef4"/>
        <path id="Path_634" data-name="Path 634" d="M175.305,234.312h-3.2a1.1,1.1,0,0,1-1.1-1.1V231.3a1.1,1.1,0,0,1,1.1-1.1h3.2a1.1,1.1,0,0,1,1.1,1.1v1.913A1.1,1.1,0,0,1,175.305,234.312Z" transform="translate(-171.009 -223.019)" fill="#eaeef4"/>
        <path id="Path_635" data-name="Path 635" d="M175.305,288.005h-3.2a1.1,1.1,0,0,1-1.1-1.1V285a1.1,1.1,0,0,1,1.1-1.1h3.2a1.1,1.1,0,0,1,1.1,1.1v1.913A1.1,1.1,0,0,1,175.305,288.005Z" transform="translate(-171.009 -269.565)" fill="#eaeef4"/>
        <path id="Path_636" data-name="Path 636" d="M175.305,341.852h-3.2a1.1,1.1,0,0,1-1.1-1.1v-1.913a1.1,1.1,0,0,1,1.1-1.1h3.2a1.1,1.1,0,0,1,1.1,1.1v1.913A1.1,1.1,0,0,1,175.305,341.852Z" transform="translate(-171.009 -316.245)" fill="#eaeef4"/>
        <path id="Path_637" data-name="Path 637" d="M394.391,180.313h-3.2a1.1,1.1,0,0,1-1.1-1.1V177.3a1.1,1.1,0,0,1,1.1-1.1h3.2a1.1,1.1,0,0,1,1.1,1.1v1.913A1.1,1.1,0,0,1,394.391,180.313Z" transform="translate(-360.935 -176.206)" fill="#eaeef4"/>
        <path id="Path_638" data-name="Path 638" d="M394.391,234.16h-3.2a1.1,1.1,0,0,1-1.1-1.1V231.15a1.1,1.1,0,0,1,1.1-1.1h3.2a1.1,1.1,0,0,1,1.1,1.1v1.913A1.1,1.1,0,0,1,394.391,234.16Z" transform="translate(-360.935 -222.886)" fill="#eaeef4"/>
        <path id="Path_639" data-name="Path 639" d="M394.391,288.005h-3.2a1.1,1.1,0,0,1-1.1-1.1V285a1.1,1.1,0,0,1,1.1-1.1h3.2a1.1,1.1,0,0,1,1.1,1.1v1.913A1.1,1.1,0,0,1,394.391,288.005Z" transform="translate(-360.935 -269.565)" fill="#eaeef4"/>
        <path id="Path_640" data-name="Path 640" d="M394.391,341.852h-3.2a1.1,1.1,0,0,1-1.1-1.1v-1.913a1.1,1.1,0,0,1,1.1-1.1h3.2a1.1,1.1,0,0,1,1.1,1.1v1.913A1.1,1.1,0,0,1,394.391,341.852Z" transform="translate(-360.935 -316.245)" fill="#eaeef4"/>
      </g>
    </g>
  </g>
</svg>
